<?xml version="1.0" standalone="no"?>
<!DOCTYPE svg PUBLIC "-//W3C//DTD SVG 1.1//EN" "http://www.w3.org/Graphics/SVG/1.1/DTD/svg11.dtd" >
<svg xmlns="http://www.w3.org/2000/svg">
<metadata>
<json>
<![CDATA[
{
	"fontFamily": "mui-icons",
	"majorVersion": 1,
	"minorVersion": 29,
	"version": "Version 1.29",
	"fontId": "mui-icons",
	"psName": "mui-icons",
	"subFamily": "Regular",
	"fullName": "mui-icons",
	"description": "Font generated by IcoMoon."
}
]]>
</json>
</metadata>
<defs>
<font id="mui-icons" horiz-adv-x="1024">
<font-face units-per-em="1024" ascent="909.824" descent="-114.176" />
<missing-glyph horiz-adv-x="1024" />
<glyph unicode="&#x20;" horiz-adv-x="512" d="" />
<glyph unicode="&#xe005;" glyph-name="page-cancel" horiz-adv-x="880" d="M877.278 584.336v-658.288c0-31.808-25.44-54.064-54.064-54.064l-766.416 0.016c-31.808 0-54.064 25.44-54.064 54.064v915.872c0 31.808 25.44 54.064 54.064 54.064h508.832c31.808 0 73.136-19.088 92.224-38.16l178.080-178.080c22.256-22.272 41.344-63.616 41.344-95.424zM804.126 530.288h-238.496c-28.624 0-54.064 25.44-54.064 54.064v238.496h-438.864v-874.528h728.256v581.968zM584.702 603.424h213.072c-3.184 9.536-9.536 19.088-12.72 22.256l-178.080 178.080c-3.184 3.184-12.72 9.536-22.256 12.72l-0.016-213.056zM495.662 247.248l152.64 203.52h-111.312l-82.688-111.312c-3.184-6.368-9.536-9.536-12.72-15.904-3.184 6.368-9.536 12.72-12.72 19.088l-76.32 108.128-114.464 0.016 146.288-206.704-165.36-222.608h117.664l101.76 143.104c0 0 0 0 0 0l101.76-143.104h117.664l-162.192 225.776z" />
<glyph unicode="&#xe0fe;" glyph-name="direction" data-tags="direction, address, road" d="M880.86 498.612h-288.282v-128.125h256.25v-192.188h-256.25v-320.313h-128.125v320.313h-352.344l-96.094 96.094 96.094 96.094h352.344v128.125h-320.313v256.25h320.313v80.078c0 12.813 4.805 24.023 14.414 33.633 9.609 11.211 20.82 14.414 33.633 14.414h32.031c12.813 0 24.023-4.805 33.633-14.414 9.609-8.008 14.414-19.219 14.414-33.633v-80.078h288.282l128.125-128.125-128.125-128.125z" />
<glyph unicode="&#xe900;" glyph-name="details" data-tags="details" d="M1024 832v-126.4h-512v126.4h512zM1024 577.6v-126.4h-512v126.4h512zM1024 320v-126.4h-1024v126.4h1024zM1024 64v-128h-1024v128h1024zM238.4 451.2h-99.2c-76.8 0-139.2 62.4-139.2 139.2v102.4c0 76.8 62.4 139.2 139.2 139.2h99.2c76.8 0 139.2-62.4 139.2-139.2v-102.4c1.6-76.8-62.4-139.2-139.2-139.2z" />
<glyph unicode="&#xe901;" glyph-name="home" data-tags="home, house" d="M1024 305.556l-512 397.426-512-397.428v162.038l512 397.426 512-397.428zM896 320v-384h-256v256h-256v-256h-256v384l384 288z" />
<glyph unicode="&#xe902;" glyph-name="stack-check" data-tags="order bulk psi" d="M841.44 281.92l82.56-40.8-410.4-205.28-410.4 205.28 82.56 40.8 327.84-163.52 327.84 163.52zM841.44 128l82.56-40.8-410.4-205.28-410.4 205.28 82.56 40.8 327.84-163.52 327.84 163.52zM518.080 496l355.84 289.6-114.080 102.56-241.6-284.96-130.080 113.92-82.080-80.96 212-140.16zM517.44 369.12l-217.28 124.32-196.96-98.56 410.4-205.12 410.4 205.12-200.32 100.16-206.24-125.92z" />
<glyph unicode="&#xe903;" glyph-name="currency-dollar-tag" data-tags="Payable to Manheim, Custom" d="M428.32 440.16c-0.017-0.456-0.026-0.993-0.026-1.531 0-7.758 1.965-15.056 5.424-21.426 3.597-6.151 8.419-11.483 14.137-15.662 6.33-4.626 13.399-8.553 20.937-11.554q12.968-5.188 27.368-9.828v122.24c-18.947-2.237-35.807-9.782-49.436-21.086-11.237-9.562-18.418-23.908-18.418-39.931 0-0.43 0.005-0.859 0.015-1.287zM578.72 308c-6.998 4.652-15.030 8.704-23.539 11.755q-14.381 5.205-28.781 8.725v-124.96c20.46 1.562 38.922 9.018 53.994 20.653 12.864 9.315 21.303 24.539 21.366 41.737 0.009 0.35 0.014 0.75 0.014 1.151 0 8.54-2.323 16.537-6.371 23.394-4.234 6.924-9.857 12.852-16.49 17.42zM816 703.040h-805.28l133.28-359.2-135.68-359.84h811.68l202.24 359.84zM647.84 226.24c-7.461-12.716-17.037-23.364-28.36-31.8-12.227-9.125-26.089-16.366-41.035-21.199-16.018-5.255-33.386-8.577-51.38-9.539l-0.505-36.822h-30.56v36.8c-0.401-0.002-0.875-0.004-1.349-0.004-26.34 0-51.751 3.978-75.664 11.366-21.814 6.638-41.889 19.577-57.452 36.692l43.905 32.106c10.142-12.331 23.177-21.92 38.087-27.781 15.896-6.78 33.615-10.891 52.209-11.572l0.264 131.512c-18.307 3.898-34.046 8.638-49.226 14.503-13.082 4.896-26.291 11.967-38.331 20.568-10.445 7.474-19.488 17.231-26.282 28.498-6.595 11.642-10.34 25.053-10.34 39.339 0 0.609 0.007 1.217 0.020 1.822-0.002-0.032-0.002 0.037-0.002 0.106 0 14.37 3.737 27.868 10.291 39.574 6.783 12.304 15.957 22.959 26.914 31.416 11.701 8.899 24.948 16.108 39.221 21.143 14.865 5.414 30.89 8.845 47.563 9.887l0.49 34.105h30.080v-34.24c23.901-0.045 46.899-3.846 68.457-10.842 19.911-6.134 38.371-17.15 53.517-31.608l-41.493-30.99c-9.634 10.295-21.373 18.491-34.544 23.92-13.748 5.708-28.958 8.884-44.911 8.884-0.361 0-0.721-0.002-1.081-0.005l0.055-129.12q25.12-6.72 48.96-14.56c16.179-5.169 30.215-11.736 43.204-19.827 11.169-6.973 21.069-16.618 28.577-27.981 7.18-11.7 11.303-25.439 11.303-40.142 0-0.918-0.016-1.832-0.048-2.742 0.008-0.184 0.010-0.557 0.010-0.931 0-14.89-3.919-28.864-10.782-40.948z" />
<glyph unicode="&#xe904;" glyph-name="badge" data-tags="Gate Pass, Custom" d="M709.76 714.56c0.381 0.009 0.829 0.015 1.279 0.015 10.789 0 20.853-3.104 29.348-8.469 7.058-3.675 12.060-10.973 12.57-19.481l0.003-280.226c-0.513-8.574-5.515-15.871-12.67-19.618-8.354-5.294-18.374-8.4-29.119-8.4-0.496 0-0.991 0.007-1.484 0.020l-408.887-0.002c-0.42-0.012-0.915-0.018-1.411-0.018-10.746 0-20.765 3.106-29.211 8.47-7.063 3.677-12.065 10.975-12.575 19.483l-0.003 280.226c0.513 8.574 5.515 15.871 12.67 19.618 8.398 5.293 18.462 8.397 29.251 8.397 0.45 0 0.898-0.005 1.345-0.016zM840-128h-666.56c-47.894 0-86.72 38.826-86.72 86.72v848c0.363 47.618 39.049 86.080 86.718 86.080 0.001 0 0.002 0 0.003 0h666.56c47.894 0 86.72-38.826 86.72-86.72v-848c-0.363-47.618-39.049-86.080-86.718-86.080-0.001 0-0.002 0-0.003 0zM173.44 841.76c-0.048 0-0.104 0-0.16 0-19.706 0-35.68-15.974-35.68-35.68 0 0 0 0 0 0v-848c0-19.706 15.974-35.68 35.68-35.68h666.72c19.706 0 35.68 15.974 35.68 35.68v848c0 19.706-15.974 35.68-35.68 35.68zM256 285.92h59.84v-237.92h-59.84v237.92zM473.76 285.92h59.84v-237.92h-59.84v237.92zM691.36 285.92h59.84v-237.92h-59.84v237.92zM380.32 285.92h28.96v-237.92h-28.96v237.92zM597.92 285.92h28.96v-237.92h-28.96v237.92z" />
<glyph unicode="&#xe905;" glyph-name="manheim-medallion" data-tags="manheim, logo" d="M0 384c0-282.624 229.376-512 512-512s512 229.376 512 512c0 282.624-229.376 512-512 512s-512-229.376-512-512zM58.026 384c0 250.539 203.435 453.974 453.974 453.974s453.974-203.435 453.974-453.974-203.435-453.974-453.974-453.974c-250.539 0-453.974 203.435-453.974 453.974zM152.234 384c0-53.931 11.605-104.448 32.768-150.187l51.883 381.611c-52.565-62.123-84.651-143.36-84.651-231.424zM617.131 728.064c-33.451 10.24-68.267 15.702-105.131 15.702-30.037 0-59.392-4.096-87.382-10.923l98.304-326.315 94.208 321.536zM797.355 602.453l42.325-366.592c20.48 45.056 32.085 94.891 32.085 148.139 0 81.92-27.989 157.696-74.411 218.453zM561.152 49.493l-81.92 1.365-121.514 395.947-32.085-370.006c54.614-32.768 118.102-51.883 186.368-51.883 75.094 0 145.408 23.211 202.752 62.805l-30.037 374.101-123.562-412.331z" />
<glyph unicode="&#xe906;" glyph-name="book-minus" data-tags="book remove" d="M896 768v-832h-672c-27.2 0-49.6 12.8-67.2 30.4-19.2 19.2-28.8 43.2-28.8 70.4s9.6 48 28.8 65.6c19.2 19.2 41.6 25.6 67.2 25.6h608v768h-640c-35.2 0-65.6-12.8-91.2-38.4s-36.8-54.4-36.8-89.6v-761.6c0-35.2 12.8-68.8 36.8-92.8 25.6-25.6 56-41.6 91.2-41.6h768v896h-64zM192 569.6c0 4.8 0 11.2 4.8 16 3.2 3.2 8 8 12.8 8h481.6c4.8 0 6.4-3.2 11.2-8 3.2-3.2 3.2-9.6 3.2-16v-88c0-4.8 1.6-8-3.2-12.8s-6.4-4.8-11.2-4.8h-481.6c-4.8 0-8 0-12.8 4.8-4.8 3.2-4.8 6.4-4.8 12.8v88zM201.6 57.6c-6.4-6.4-9.6-12.8-9.6-20.8s3.2-17.6 9.6-24c6.4-8 14.4-12.8 22.4-12.8h608v64h-608c-8 0-16 0-22.4-6.4z" />
<glyph unicode="&#xe907;" glyph-name="book-plus" data-tags="book add" d="M896 768v-832h-672c-27.2 0-49.6 12.8-67.2 30.4-19.2 19.2-28.8 43.2-28.8 70.4s9.6 48 28.8 65.6c19.2 19.2 41.6 25.6 67.2 25.6h608v768h-640c-35.2 0-65.6-12.8-91.2-38.4s-36.8-54.4-36.8-89.6v-761.6c0-35.2 12.8-68.8 36.8-92.8 25.6-25.6 56-41.6 91.2-41.6h768v896h-64zM192 569.6c0 4.8 0 11.2 4.8 16 3.2 3.2 8 8 12.8 8h174.4v168c0 4.8 1.6 11.2 4.8 16 3.2 3.2 8 6.4 12.8 6.4h89.6c4.8 0 9.6-3.2 14.4-8 3.2-3.2 6.4-9.6 6.4-16v-168h179.2c4.8 0 6.4-3.2 11.2-8 3.2-3.2 3.2-9.6 3.2-16v-88c0-4.8 1.6-8-3.2-12.8-4.8-3.2-6.4-3.2-11.2-3.2h-179.2v-179.2c0-4.8-1.6-6.4-6.4-11.2-3.2-3.2-9.6-3.2-14.4-3.2h-89.6c-4.8 0-9.6-1.6-12.8 3.2-3.2 3.2-4.8 4.8-4.8 11.2v179.2h-174.4c-4.8 0-8 0-12.8 4.8-4.8 3.2-4.8 6.4-4.8 12.8v88zM201.6 57.6c-6.4-6.4-9.6-12.8-9.6-20.8s3.2-17.6 9.6-24c6.4-8 14.4-12.8 22.4-12.8h608v64h-608c-8 0-16 0-22.4-6.4z" />
<glyph unicode="&#xe908;" glyph-name="bars-vertical" data-tags="Slider" d="M876.8-128h-145.6v1024h145.6v-1024zM584-128h-145.6v1024h145.6v-1024zM291.2-128h-147.2v1024h145.6v-1024z" />
<glyph unicode="&#xe909;" glyph-name="office" data-tags="office, buildings, work" d="M0-128h512v1024h-512v-1024zM320 768h128v-128h-128v128zM320 512h128v-128h-128v128zM320 256h128v-128h-128v128zM64 768h128v-128h-128v128zM64 512h128v-128h-128v128zM64 256h128v-128h-128v128zM576 576h448v-64h-448zM576-128h128v256h192v-256h128v576h-448z" />
<glyph unicode="&#xe90a;" glyph-name="a-left-arrow" data-tags="rename" d="M998.080 444h-213.28v130.080l-170.080-170.080 170.080-170.080v130.080h213.28v80zM448.96 132q-85.6-80-220.64-80c-2.728-0.115-5.93-0.18-9.146-0.18-55.308 0-106.105 19.314-146.014 51.565l0.441-0.345c-37.149 30.189-60.692 75.878-60.692 127.066 0 1.454 0.019 2.903 0.057 4.347l-0.004-0.213q0 221.28 381.28 221.28h54.72c0.134 4.239 0.21 9.225 0.21 14.228 0 29.747-2.696 58.864-7.857 87.121l0.447-2.949c-5.961 22.086-20.352 40.079-39.422 50.667l-0.418 0.213q-32 20.16-104.16 20.16-149.92 0-154.72-107.040h-111.040q12.48 194.56 272 194.56 121.44 0 189.12-48t67.68-189.28v-408.16h-112zM448.96 233.12v139.84h-76.8q-244.16 0-244.16-132.96c-0.069-1.285-0.108-2.789-0.108-4.302 0-28.632 14.005-53.993 35.538-69.606l0.249-0.172c24.79-16.375 55.209-26.124 87.905-26.124 2.847 0 5.677 0.074 8.488 0.22l-0.393-0.016c0.071 0 0.155 0 0.239 0 39.372 0 76.563 9.337 109.479 25.919l-1.398-0.638c33.026 15.688 60.307 38.764 80.532 67.207l0.428 0.633z" />
<glyph unicode="&#xe90b;" glyph-name="car-side" data-tags="car side" d="M1021.221 325.803s2.943-65.39-38.416-90.238h-52.475c7.014 14.312 11.116 31.147 11.116 48.94 0 62.567-50.721 113.287-113.287 113.287s-113.287-50.721-113.287-113.287c0-17.793 4.102-34.628 11.411-49.61l-0.295 0.67h-420.782c7.014 14.312 11.116 31.147 11.116 48.94 0 62.567-50.721 113.287-113.287 113.287s-113.287-50.721-113.287-113.287c0-17.793 4.102-34.628 11.411-49.61l-0.295 0.67s-60.812-2.779-80.756 17.655-16.347 152.685-16.347 152.685c8.388 3.396 14.913 9.921 18.23 18.090l0.079 0.219c4.741 13.405 13.405 59.504 13.405 59.504s203.688 77.977 310.6 90.401 130.943 6.049 165.926 1.308c97.267-8.664 248.317-105.604 248.317-105.604s171.811-22.069 238.181-76.833c10.873-19.411 18.835-42.032 22.577-66.049l0.146-1.139zM521.808 559.244c-24.41 4.29-52.516 6.743-81.194 6.743-30.699 0-60.742-2.811-89.884-8.188l3.028 0.464s-101.844-18.309-134.539-34.493c-12.587-8.501 0-21.088 0-21.088 27.464-27.464 347.872-49.042 495.489-36.618-2.452 10.789-112.143 76.833-192.899 93.18zM296.215 284.444c-0.001-52.003-42.158-94.159-94.161-94.159s-94.161 42.157-94.161 94.161c0 51.774 41.785 93.788 93.471 94.159h0.036c0.194 0.001 0.424 0.002 0.654 0.002 52.004 0 94.161-42.157 94.161-94.161 0-0.001 0-0.002 0-0.002v0zM201.4 345.911c-33.946 0-61.466-27.52-61.466-61.466s27.52-61.466 61.466-61.466c33.946 0 61.466 27.52 61.466 61.466v0c0 33.946-27.52 61.466-61.466 61.466v0zM922.156 284.444c0-52.004-42.157-94.161-94.161-94.161s-94.161 42.157-94.161 94.161c0 52.004 42.157 94.161 94.161 94.161v0c52.004 0 94.161-42.157 94.161-94.161v0zM827.995 345.911c-33.946 0-61.466-27.52-61.466-61.466s27.52-61.466 61.466-61.466c33.946 0 61.466 27.52 61.466 61.466v0c0 33.946-27.52 61.466-61.466 61.466v0z" />
<glyph unicode="&#xe90d;" glyph-name="gauge" data-tags="mmr gauge" d="M610.72 214.56c-0.387 4.157-1.585 7.958-3.437 11.353l0.077-0.153-240 448.96c-5.622 9.692-15.949 16.106-27.774 16.106-3.512 0-6.891-0.566-10.052-1.611l0.226 0.065c-12.591-3.782-21.606-15.269-21.606-28.862 0-1.559 0.119-3.090 0.347-4.586l-0.021 0.167 93.76-497.76c0.759-4.058 2.267-7.662 4.386-10.824l-0.066 0.104c1.063-5.013 2.276-9.246 3.744-13.359l-0.224 0.719c15.66-41.995 55.423-71.362 102.044-71.362 0.238 0 0.475 0.001 0.712 0.002h-0.036c12.598 0.012 24.7 2.119 35.981 5.993l-0.781-0.233c27.426 9.083 49.43 28.173 62.12 52.84l0.28 0.6c6.903 13.389 10.95 29.22 10.95 45.996 0 12.189-2.136 23.878-6.055 34.715l0.225-0.711c-1.562 4.712-3.186 8.627-5.051 12.401l0.251-0.561zM512.96 656c-16.657 0-30.16-13.503-30.16-30.16s13.503-30.16 30.16-30.16v0c247.52 0.64 448.96-195.68 448.96-435.68 0-17.143 13.897-31.040 31.040-31.040s31.040 13.897 31.040 31.040v0c0 274.080-229.28 496-511.040 496zM192 546.4c-115.871-90.215-189.744-229.662-189.92-386.371v-0.029c0.268-16.672 13.846-30.084 30.556-30.084 0.17 0 0.34 0.001 0.509 0.004h-0.026c0.096-0.001 0.21-0.002 0.324-0.002 16.71 0 30.287 13.411 30.556 30.056v0.025c0.168 137.753 65.145 260.296 166.073 338.796l0.967 0.724c7.033 5.466 11.515 13.926 11.515 23.433 0 7.238-2.598 13.87-6.913 19.013l0.037-0.046c-5.901 6.803-14.559 11.081-24.215 11.081-7.357 0-14.134-2.483-19.539-6.656l0.074 0.055z" />
<glyph unicode="&#xe90e;" glyph-name="pencil" data-tags="pencil, write, edit" d="M864 896c88.364 0 160-71.634 160-160 0-36.020-11.91-69.258-32-96l-64-64-224 224 64 64c26.742 20.090 59.978 32 96 32zM64 160l-64-288 288 64 592 592-224 224-592-592zM715.578 532.422l-448-448-55.156 55.156 448 448 55.156-55.156z" />
<glyph unicode="&#xe90f;" glyph-name="droplet" data-tags="paint mmr drop" d="M760.96 410.56c6.202-17.402 11.752-38.433 15.626-60.045l0.374-2.515c3.219-16.858 5.061-36.247 5.061-56.067 0-2.79-0.036-5.571-0.109-8.343l0.008 0.41c-0.497-22.433-3.327-43.945-8.259-64.643l0.419 2.083c-5.229-22.597-12.822-42.504-22.721-60.991l0.641 1.311c-12.605-23.034-27.161-42.895-43.96-60.607l0.12 0.127c-33.618-35.481-76.263-62.083-124.265-76.144l-1.975-0.496c-22.29-6.613-47.901-10.418-74.4-10.418s-52.11 3.805-76.315 10.899l1.915-0.481c-49.977 14.557-92.622 41.159-126.121 76.513l-0.119 0.127c-16.679 17.585-31.235 37.445-43.093 58.999l-0.747 1.481c-9.63 17.36-17.542 37.463-22.696 58.646l-0.344 1.674c-4.513 18.615-7.343 40.127-7.834 62.216l-0.006 0.344c-0.064 2.363-0.101 5.144-0.101 7.933 0 19.82 1.841 39.209 5.363 58.007l-0.302-1.94c4.248 24.127 9.798 45.158 16.883 65.469l-0.883-2.909c13.708 37.193 28.849 68.841 46.502 98.833l-1.542-2.833c19.899 34.34 39.725 63.603 61.347 91.399l-1.347-1.799c23.272 29.945 46.58 56.549 71.33 81.732l-0.13-0.132q38.080 38.88 77.6 72.64 39.52-33.76 77.6-72.64c24.745-25.152 48.157-51.861 69.982-79.869l1.538-2.051c20.275-25.997 40.101-55.26 57.956-85.814l2.044-3.786c16.128-27.25 31.272-59.007 43.597-92.137l1.363-4.183zM670.4 204.8c13.018 23.136 20.687 50.787 20.687 80.229 0 4.65-0.191 9.255-0.566 13.808l0.040-0.597c-2.183 29.772-7.874 57.437-16.696 83.664l0.696-2.384q-4.96 14.4-11.84 29.44t-14.72 30.88c5.222-21.695 8.216-46.604 8.216-72.212 0-4.145-0.078-8.273-0.234-12.38l0.018 0.592c-1.275-33.953-10.61-65.465-26.132-93.028l0.532 1.028c-10.058-19.433-22.161-36.131-36.37-50.772l0.050 0.052c-14.039-14.674-29.789-27.524-46.98-38.285l-1.020-0.595c-16.338-10.11-35.193-18.564-55.168-24.392l-1.632-0.408c-18.459-5.484-39.667-8.64-61.612-8.64-0.052 0-0.104 0-0.156 0h-14.392c-5.273 0.258-10.217 0.886-15.032 1.868l0.632-0.108c14.894-10.966 32.050-20.119 50.46-26.616l1.38-0.424c17.154-6.185 36.949-9.76 57.578-9.76 0.008 0 0.015 0 0.023 0h-0.001c35.136 0.019 67.918 10.085 95.632 27.48l-0.752-0.44c28.642 17.593 51.549 41.988 66.88 71.004l0.48 0.996z" />
<glyph unicode="&#xe910;" glyph-name="g-cr" data-tags="cr mmr" d="M443.040 221.12c4.493-0.109 8.512-2.054 11.351-5.11l0.009-0.010 29.76-32c-22.831-26.239-50.901-47.287-82.648-61.629l-1.512-0.611c-32.71-14.126-70.795-22.341-110.799-22.341-2.673 0-5.337 0.037-7.992 0.11l0.391-0.008c-1.229-0.019-2.681-0.031-4.134-0.031-38.203 0-74.617 7.655-107.794 21.515l1.848-0.685c-33.034 13.887-61.076 33.668-84.030 58.259l-0.13 0.141c-23.142 25.252-41.538 55.288-53.5 88.401l-0.58 1.839c-12.179 33.355-19.222 71.863-19.222 112.016 0 1.345 0.008 2.687 0.024 4.028l-0.002-0.204c-0.005 0.69-0.009 1.505-0.009 2.321 0 40.828 7.755 79.845 21.872 115.658l-0.743-2.139c13.627 35.178 33.224 65.262 57.812 90.453l-0.052-0.053c24.667 24.912 54.335 44.821 87.381 58.103l1.739 0.617c32.782 13.18 70.789 20.826 110.583 20.826 1.399 0 2.795-0.009 4.189-0.028l-0.212 0.002c1.949 0.050 4.243 0.079 6.545 0.079 36.070 0 70.5-7.021 101.999-19.771l-1.824 0.652c30.884-13.149 57.37-30.607 80.145-51.975l-0.145 0.135-24.64-34.72c-1.737-2.493-3.804-4.61-6.166-6.348l-0.074-0.052c-2.588-1.63-5.737-2.597-9.111-2.597-0.397 0-0.792 0.013-1.182 0.040l0.053-0.003c-4.040 0.171-7.733 1.524-10.779 3.72l-13.381 9.080q-7.84 5.44-18.4 11.68c-7.175 4.127-15.569 8.013-24.314 11.165l-1.126 0.355c-9.411 3.568-20.689 6.726-32.307 8.917l-1.293 0.203c-12.516 2.351-26.915 3.695-41.628 3.695-0.946 0-1.891-0.006-2.835-0.017l0.143 0.001c-0.333 0.002-0.728 0.003-1.123 0.003-29.31 0-57.246-5.881-82.692-16.528l1.415 0.525c-25.075-10.437-46.39-25.286-63.924-43.759l-0.076-0.081c-18.208-19.082-32.719-41.875-42.264-67.106l-0.456-1.374c-9.547-26.154-15.068-56.348-15.068-87.832 0-1.353 0.010-2.704 0.031-4.052l-0.002 0.204c-0.023-1.314-0.036-2.864-0.036-4.418 0-31.785 5.523-62.279 15.662-90.576l-0.586 1.874c9.637-26.802 23.671-49.849 41.435-69.454l-0.155 0.174c16.869-18.306 37.466-32.899 60.617-42.614l1.143-0.426c22.24-9.415 48.102-14.886 75.242-14.886 0.548 0 1.095 0.002 1.641 0.007l-0.084-0.001c0.741-0.006 1.618-0.010 2.495-0.010 14.977 0 29.708 1.050 44.124 3.081l-1.659-0.192c13.841 1.796 26.328 4.822 38.253 9.039l-1.293-0.399c12.239 4.501 22.797 9.894 32.582 16.361l-0.582-0.361c11.1 7.361 20.761 14.887 29.816 23.072l-0.216-0.192c3.183 3.404 7.523 5.691 12.39 6.232l0.090 0.008zM667.52 338.88v-233.12h-75.52v558.72h158.56c1.798 0.033 3.919 0.052 6.044 0.052 30.537 0 60.157-3.93 88.38-11.311l-2.424 0.539c24.509-6.329 45.92-17.036 64.404-31.341l-0.404 0.301c16.175-12.827 28.928-29.275 37.129-48.157l0.311-0.803c7.7-18.278 12.175-39.526 12.175-61.82 0-0.767-0.005-1.532-0.016-2.296l0.001 0.116c0.003-0.357 0.005-0.78 0.005-1.202 0-19.425-3.462-38.042-9.802-55.267l0.357 1.109c-6.548-17.819-15.771-33.169-27.346-46.411l0.146 0.171c-12.262-13.848-26.641-25.472-42.697-34.457l-0.823-0.423c-16.751-9.244-36.163-16.591-56.661-21.023l-1.419-0.257c10.121-6.15 18.513-14.134 24.942-23.563l0.178-0.277 163.68-222.4h-67.36c-0.621-0.041-1.347-0.065-2.078-0.065-12.019 0-22.549 6.371-28.399 15.92l-0.083 0.145-145.6 199.68c-3.763 5.563-8.645 10.087-14.35 13.33l-0.21 0.11c-6.092 2.679-13.194 4.238-20.66 4.238-1.006 0-2.005-0.028-2.997-0.084l0.138 0.006zM667.52 393.92h80c0.98-0.018 2.136-0.028 3.295-0.028 19.703 0 38.721 2.934 56.641 8.388l-1.376-0.36c16.142 4.956 30.124 12.68 42.107 22.712l-0.187-0.152c10.951 9.355 19.643 21.022 25.366 34.272l0.234 0.608c5.469 12.836 8.648 27.768 8.648 43.443 0 0.477-0.003 0.954-0.009 1.429l0.001-0.072c0.124 1.755 0.194 3.804 0.194 5.869 0 27.971-12.932 52.921-33.143 69.197l-0.171 0.133q-33.12 25.44-98.56 25.44h-83.040z" />
<glyph unicode="&#xe914;" glyph-name="edit" data-tags="pencil, write, edit" d="M768 352v-352h-640v640h352l128 128h-512c-52.8 0-96-43.2-96-96v-704c0-52.8 43.2-96 96-96h704c52.798 0 96 43.2 96 96v512l-128-128zM864 896l-608-608v-160h160l608 608c0 96-64 160-160 160zM416 256l-48 48 480 480 48-48-480-480z" />
<glyph unicode="&#xe93c;" glyph-name="image" data-tags="image, picture, photo, graphic" d="M959.884 768c0.040-0.034 0.082-0.076 0.116-0.116v-767.77c-0.034-0.040-0.076-0.082-0.116-0.116h-895.77c-0.040 0.034-0.082 0.076-0.114 0.116v767.772c0.034 0.040 0.076 0.082 0.114 0.114h895.77zM960 832h-896c-35.2 0-64-28.8-64-64v-768c0-35.2 28.8-64 64-64h896c35.2 0 64 28.8 64 64v768c0 35.2-28.8 64-64 64v0zM832 608c0-53.020-42.98-96-96-96s-96 42.98-96 96 42.98 96 96 96 96-42.98 96-96zM896 64h-768v128l224 384 256-320h64l224 192z" />
<glyph unicode="&#xe93e;" glyph-name="images" data-tags="images, pictures, photos, graphics" horiz-adv-x="1152" d="M1088 768h-64v64c0 35.2-28.8 64-64 64h-896c-35.2 0-64-28.8-64-64v-768c0-35.2 28.8-64 64-64h64v-64c0-35.2 28.8-64 64-64h896c35.2 0 64 28.8 64 64v768c0 35.2-28.8 64-64 64zM128 704v-640h-63.886c-0.040 0.034-0.082 0.076-0.114 0.116v767.77c0.034 0.040 0.076 0.082 0.114 0.114h895.77c0.040-0.034 0.082-0.076 0.116-0.116v-63.884h-768c-35.2 0-64-28.8-64-64v0zM1088-63.884c-0.034-0.040-0.076-0.082-0.116-0.116h-895.77c-0.040 0.034-0.082 0.076-0.114 0.116v767.77c0.034 0.040 0.076 0.082 0.114 0.114h895.77c0.040-0.034 0.082-0.076 0.116-0.116v-767.768zM960 544c0-53.020-42.98-96-96-96s-96 42.98-96 96 42.98 96 96 96 96-42.98 96-96zM1024 0h-768v128l224 384 256-320h64l224 192z" />
<glyph unicode="&#xe944;" glyph-name="camera" data-tags="camera, photo, picture, image" d="M304 288c0-114.876 93.124-208 208-208s208 93.124 208 208-93.124 208-208 208-208-93.124-208-208zM960 640h-224c-16 64-32 128-96 128h-256c-64 0-80-64-96-128h-224c-35.2 0-64-28.8-64-64v-576c0-35.2 28.8-64 64-64h896c35.2 0 64 28.8 64 64v576c0 35.2-28.8 64-64 64zM512 4c-156.85 0-284 127.148-284 284 0 156.85 127.15 284 284 284 156.852 0 284-127.15 284-284 0-156.852-127.146-284-284-284zM960 448h-128v64h128v-64z" />
<glyph unicode="&#xe97c;" glyph-name="connection-max" data-tags="connection, wifi, wave" horiz-adv-x="1280" d="M640 320c105.87 0 201.87-43.066 271.402-112.598l-90.468-90.468c-46.354 46.356-110.356 75.066-180.934 75.066s-134.578-28.71-180.934-75.066l-90.468 90.468c69.532 69.532 165.532 112.598 271.402 112.598zM187.452 388.548c120.88 120.88 281.598 187.452 452.548 187.452s331.668-66.572 452.55-187.452l-90.51-90.508c-96.706 96.704-225.28 149.96-362.040 149.96-136.762 0-265.334-53.256-362.038-149.962l-90.51 90.51zM988.784 761.562c106.702-45.132 202.516-109.728 284.782-191.996v0l-90.508-90.508c-145.056 145.056-337.92 224.942-543.058 224.942-205.14 0-398-79.886-543.058-224.942l-90.51 90.51c82.268 82.266 178.082 146.862 284.784 191.994 110.504 46.738 227.852 70.438 348.784 70.438s238.278-23.7 348.784-70.438zM576 0c0 35.346 28.654 64 64 64s64-28.654 64-64c0-35.346-28.654-64-64-64s-64 28.654-64 64z" />
<glyph unicode="&#xe97d;" glyph-name="connection-strong" data-tags="connection, wifi, dualtone" horiz-adv-x="1280" d="M640 320c105.87 0 201.87-43.066 271.402-112.598l-90.468-90.468c-46.354 46.356-110.356 75.066-180.934 75.066s-134.578-28.71-180.934-75.066l-90.468 90.468c69.532 69.532 165.532 112.598 271.402 112.598v0zM187.452 388.548c120.88 120.88 281.598 187.452 452.548 187.452s331.668-66.572 452.55-187.452l-90.51-90.508c-96.706 96.704-225.28 149.96-362.040 149.96-136.762 0-265.334-53.256-362.038-149.96l-90.51 90.508zM576 0c0 35.346 28.654 64 64 64s64-28.654 64-64-28.654-64-64-64-64 28.654-64 64zM840 677.83c5.352-1.432 10.686-2.918 16-4.466v132.452c-5.322 1.32-10.654 2.606-16 3.826v-131.812zM808 685.67c5.352-1.188 10.684-2.44 16-3.74v131.19c-5.324 1.112-10.654 2.188-16 3.202v-130.652zM936 645.108c5.36-2.238 10.694-4.532 16-6.89v137.94c-5.32 1.978-10.65 3.918-16 5.794v-136.844zM872 668.512c5.356-1.69 10.688-3.444 16-5.25v133.984c-5.322 1.532-10.652 3.028-16 4.46v-133.194zM904 657.618c5.358-1.956 10.69-3.972 16-6.048v135.804c-5.32 1.752-10.652 3.466-16 5.116v-134.872zM712 700.676c5.346-0.494 10.68-1.038 16-1.642v128.716c-5.324 0.518-10.658 0.98-16 1.402v-128.476zM648 703.952c5.342-0.054 10.676-0.168 16-0.332v128.060c-5.326 0.138-10.66 0.224-16 0.27v-127.998zM776 692.056c5.348-0.95 10.684-1.95 16-3.010v130.144c-5.324 0.91-10.656 1.778-16 2.59v-129.724zM744 697.060c5.348-0.72 10.68-1.504 16-2.334v129.332c-5.324 0.71-10.658 1.376-16 1.99v-128.988zM680 702.974c5.344-0.272 10.678-0.598 16-0.978v128.294c-5.324 0.326-10.66 0.592-16 0.824v-128.14zM1224 520l16 16v65.458c-5.284 4.774-10.618 9.48-16 14.116v-95.574zM1192 488l16 16v125.042c-5.29 4.346-10.622 8.632-16 12.85v-153.892zM1160 501.182c5.39-4.97 10.728-10.016 16-15.156v168.12c-5.292 3.958-10.626 7.85-16 11.686v-164.65zM1256 586.654v-34.654l16 16v3.114c-5.278 5.254-10.612 10.432-16 15.54zM968 770.048v-139.168c5.364-2.536 10.696-5.138 16-7.802v140.472c-5.32 2.214-10.65 4.392-16 6.498zM1000 614.806c5.366-2.854 10.7-5.776 16-8.762v143.46c-5.306 2.454-10.636 4.862-16 7.214v-141.912zM1032 596.776c5.37-3.198 10.704-6.464 16-9.798v146.968c-5.3 2.71-10.638 5.36-16 7.966v-145.136zM1096 554.164c5.378-3.986 10.712-8.044 16-12.178v155.828c-5.298 3.286-10.63 6.518-16 9.694v-153.344zM1128 529.116c5.386-4.448 10.718-8.98 16-13.586v161.46c-5.294 3.608-10.628 7.16-16 10.652v-158.526zM1064 576.626c5.374-3.572 10.708-7.214 16-10.928v151.040c-5.3 2.99-10.632 5.926-16 8.81v-148.922zM200 565.698c5.292 3.714 10.626 7.356 16 10.928v148.922c-5.366-2.882-10.7-5.82-16-8.81v-151.040zM616 703.62c5.324 0.162 10.658 0.278 16 0.332v128c-5.34-0.046-10.674-0.132-16-0.27v-128.062zM232 586.976c5.296 3.334 10.63 6.6 16 9.798v145.14c-5.362-2.608-10.7-5.256-16-7.966v-146.972zM136 515.528c5.282 4.606 10.614 9.138 16 13.586v158.528c-5.372-3.492-10.706-7.042-16-10.652v-161.462zM264 749.506v-143.46c5.3 2.986 10.634 5.908 16 8.762v141.914c-5.362-2.354-10.694-4.764-16-7.216zM8 568l16-16v34.656c-5.388-5.108-10.722-10.286-16-15.538v-3.118zM104 486.024c5.27 5.14 10.61 10.186 16 15.156v164.652c-5.374-3.836-10.708-7.728-16-11.686v-168.122zM296 623.080c5.304 2.662 10.636 5.266 16 7.802v139.168c-5.35-2.108-10.68-4.286-16-6.5v-140.47zM40 536l16-16v95.578c-5.382-4.636-10.716-9.342-16-14.116v-65.462zM72 504l16-16v153.89c-5.378-4.216-10.71-8.502-16-12.848v-125.042zM168 541.984c5.288 4.134 10.622 8.194 16 12.178v153.344c-5.368-3.174-10.702-6.408-16-9.694v-155.828zM328 638.216c5.306 2.36 10.642 4.654 16 6.89v136.846c-5.35-1.874-10.68-3.814-16-5.794v-137.942zM552 699.036c5.322 0.604 10.656 1.148 16 1.642v128.474c-5.342-0.422-10.676-0.884-16-1.402v-128.714zM584 701.996c5.322 0.38 10.656 0.706 16 0.978v128.14c-5.34-0.232-10.676-0.498-16-0.824v-128.294zM488 689.046c5.318 1.062 10.652 2.060 16 3.010v129.724c-5.344-0.812-10.676-1.68-16-2.59v-130.144zM520 694.726c5.32 0.83 10.652 1.614 16 2.334v128.988c-5.342-0.616-10.676-1.28-16-1.99v-129.332zM392 663.262c5.312 1.806 10.644 3.562 16 5.25v133.194c-5.346-1.432-10.678-2.926-16-4.46v-133.984zM360 651.57c5.31 2.076 10.644 4.092 16 6.048v134.872c-5.348-1.65-10.678-3.364-16-5.116v-135.804zM456 681.93c5.316 1.3 10.65 2.552 16 3.74v130.652c-5.344-1.014-10.676-2.090-16-3.202v-131.19zM424 673.364c5.314 1.548 10.648 3.034 16 4.466v131.812c-5.346-1.22-10.676-2.506-16-3.826v-132.452z" />
<glyph unicode="&#xe97e;" glyph-name="connection-medium" data-tags="connection, wifi, dualtone" horiz-adv-x="1280" d="M640 320c105.87 0 201.87-43.066 271.402-112.598l-90.468-90.468c-46.354 46.356-110.356 75.066-180.934 75.066s-134.578-28.71-180.934-75.066l-90.468 90.468c69.532 69.532 165.532 112.598 271.402 112.598v0zM576 0c0 35.346 28.654 64 64 64s64-28.654 64-64-28.654-64-64-64-64 28.654-64 64zM840 677.83c5.352-1.432 10.686-2.918 16-4.466v132.452c-5.322 1.32-10.654 2.606-16 3.826v-131.812zM808 685.67c5.352-1.188 10.684-2.44 16-3.74v131.19c-5.324 1.112-10.654 2.188-16 3.202v-130.652zM936 645.108c5.36-2.238 10.694-4.532 16-6.89v137.94c-5.32 1.978-10.65 3.918-16 5.794v-136.844zM872 668.512c5.356-1.69 10.688-3.444 16-5.25v133.984c-5.322 1.532-10.652 3.028-16 4.46v-133.194zM904 657.618c5.358-1.956 10.69-3.972 16-6.048v135.804c-5.32 1.752-10.652 3.466-16 5.116v-134.872zM712 700.676c5.346-0.494 10.68-1.038 16-1.642v128.716c-5.324 0.518-10.658 0.98-16 1.402v-128.476zM648 703.952c5.342-0.054 10.676-0.168 16-0.332v128.060c-5.326 0.138-10.66 0.224-16 0.27v-127.998zM776 692.056c5.348-0.95 10.684-1.95 16-3.010v130.144c-5.324 0.91-10.656 1.778-16 2.59v-129.724zM744 697.060c5.348-0.72 10.68-1.504 16-2.334v129.332c-5.324 0.71-10.658 1.376-16 1.99v-128.988zM680 702.974c5.344-0.272 10.678-0.598 16-0.978v128.294c-5.324 0.326-10.66 0.592-16 0.824v-128.14zM1224 520l16 16v65.458c-5.284 4.774-10.618 9.48-16 14.116v-95.574zM1192 488l16 16v125.042c-5.29 4.346-10.622 8.632-16 12.85v-153.892zM1160 501.182c5.39-4.97 10.728-10.016 16-15.156v168.12c-5.292 3.958-10.626 7.85-16 11.686v-164.65zM1256 586.654v-34.654l16 16v3.114c-5.278 5.254-10.612 10.432-16 15.54zM968 770.048v-139.168c5.364-2.536 10.696-5.138 16-7.802v140.472c-5.32 2.214-10.65 4.392-16 6.498zM1000 614.806c5.366-2.854 10.7-5.776 16-8.762v143.46c-5.306 2.454-10.636 4.862-16 7.214v-141.912zM1032 596.776c5.37-3.198 10.704-6.464 16-9.798v146.968c-5.3 2.71-10.638 5.36-16 7.966v-145.136zM1096 554.164c5.378-3.986 10.712-8.044 16-12.178v155.828c-5.298 3.286-10.63 6.518-16 9.694v-153.344zM1128 529.116c5.386-4.448 10.718-8.98 16-13.586v161.46c-5.294 3.608-10.628 7.16-16 10.652v-158.526zM1064 576.626c5.374-3.572 10.708-7.214 16-10.928v151.040c-5.3 2.99-10.632 5.926-16 8.81v-148.922zM200 565.698c5.292 3.714 10.626 7.356 16 10.928v148.922c-5.366-2.882-10.7-5.82-16-8.81v-151.040zM616 703.62c5.324 0.162 10.658 0.278 16 0.332v128c-5.34-0.046-10.674-0.132-16-0.27v-128.062zM232 586.976c5.296 3.334 10.63 6.6 16 9.798v145.14c-5.362-2.608-10.7-5.256-16-7.966v-146.972zM136 515.528c5.282 4.606 10.614 9.138 16 13.586v158.528c-5.372-3.492-10.706-7.042-16-10.652v-161.462zM264 749.506v-143.46c5.3 2.986 10.634 5.908 16 8.762v141.914c-5.362-2.354-10.694-4.764-16-7.216zM8 568l16-16v34.656c-5.388-5.108-10.722-10.286-16-15.538v-3.118zM104 486.024c5.27 5.14 10.61 10.186 16 15.156v164.652c-5.374-3.836-10.708-7.728-16-11.686v-168.122zM296 623.080c5.304 2.662 10.636 5.266 16 7.802v139.168c-5.35-2.108-10.68-4.286-16-6.5v-140.47zM40 536l16-16v95.578c-5.382-4.636-10.716-9.342-16-14.116v-65.462zM72 504l16-16v153.89c-5.378-4.216-10.71-8.502-16-12.848v-125.042zM168 541.984c5.288 4.134 10.622 8.194 16 12.178v153.344c-5.368-3.174-10.702-6.408-16-9.694v-155.828zM328 638.216c5.306 2.36 10.642 4.654 16 6.89v136.846c-5.35-1.874-10.68-3.814-16-5.794v-137.942zM552 699.036c5.322 0.604 10.656 1.148 16 1.642v128.474c-5.342-0.422-10.676-0.884-16-1.402v-128.714zM584 701.996c5.322 0.38 10.656 0.706 16 0.978v128.14c-5.34-0.232-10.676-0.498-16-0.824v-128.294zM488 689.046c5.318 1.062 10.652 2.060 16 3.010v129.724c-5.344-0.812-10.676-1.68-16-2.59v-130.144zM520 694.726c5.32 0.83 10.652 1.614 16 2.334v128.988c-5.342-0.616-10.676-1.28-16-1.99v-129.332zM392 663.262c5.312 1.806 10.644 3.562 16 5.25v133.194c-5.346-1.432-10.678-2.926-16-4.46v-133.984zM360 651.57c5.31 2.076 10.644 4.092 16 6.048v134.872c-5.348-1.65-10.678-3.364-16-5.116v-135.804zM456 681.93c5.316 1.3 10.65 2.552 16 3.74v130.652c-5.344-1.014-10.676-2.090-16-3.202v-131.19zM424 673.364c5.314 1.548 10.648 3.034 16 4.466v131.812c-5.346-1.22-10.676-2.506-16-3.826v-132.452zM776 429.828c5.364-1.468 10.696-3.038 16-4.678v132.756c-5.312 1.29-10.646 2.506-16 3.658v-131.736zM808 419.896c5.364-1.858 10.706-3.776 16-5.812v135.184c-5.308 1.584-10.644 3.094-16 4.542v-133.914zM712 442.976c5.352-0.75 10.69-1.552 16-2.466v129.48c-5.318 0.728-10.652 1.388-16 1.982v-128.996zM680 446.452c5.352-0.412 10.684-0.922 16-1.498v128.596c-5.32 0.458-10.654 0.85-16 1.178v-128.276zM744 437.464c5.36-1.1 10.692-2.292 16-3.56v130.888c-5.316 1.004-10.648 1.938-16 2.808v-130.136zM840 407.586c5.374-2.28 10.708-4.646 16-7.11v138.33c-5.304 1.898-10.642 3.71-16 5.464v-136.684zM872 392.684c5.382-2.742 10.712-5.592 16-8.528v142.182c-5.304 2.23-10.634 4.4-16 6.484v-140.138zM1032 328l16 15.998v85.128c-5.278 4.382-10.606 8.686-16 12.884v-114.010zM1064 415.376v-55.376l16 16v24.748c-5.258 4.982-10.604 9.84-16 14.628zM1000 300.030c0.676-0.668 1.368-1.318 2.040-1.99l13.96 13.96v142.026c-5.282 3.852-10.618 7.614-16 11.292v-165.288zM904 374.908c5.392-3.256 10.718-6.632 16-10.096v147.002c-5.3 2.584-10.632 5.094-16 7.528v-144.434zM968 329.154c5.408-4.53 10.754-9.154 16-13.924v160.692c-5.292 3.386-10.62 6.71-16 9.932v-156.7zM648 447.902c5.346-0.082 10.682-0.224 16-0.468v128.078c-5.322 0.196-10.656 0.326-16 0.39v-128zM936 353.894c5.4-3.844 10.732-7.802 16-11.868v153.066c-5.292 2.964-10.63 5.838-16 8.646v-149.844zM456 414.084c5.294 2.036 10.636 3.954 16 5.81v133.914c-5.356-1.448-10.69-2.956-16-4.542v-135.182zM296 315.23c5.246 4.77 10.592 9.394 16 13.924v156.7c-5.38-3.222-10.708-6.546-16-9.932v-160.692zM264 312l13.962-13.96c0.672 0.672 1.362 1.32 2.038 1.988v165.29c-5.384-3.678-10.718-7.44-16-11.292v-142.026zM328 342.028c5.268 4.064 10.598 8.024 16 11.868v149.844c-5.37-2.808-10.708-5.682-16-8.646v-153.066zM360 364.81c5.28 3.464 10.608 6.842 16 10.1v144.432c-5.368-2.432-10.7-4.944-16-7.528v-147.004zM232 344l16-16v114.008c-5.396-4.198-10.722-8.5-16-12.884v-85.124zM200 376l16-16v55.374c-5.396-4.786-10.742-9.646-16-14.63v-24.744zM584 444.956c5.318 0.576 10.648 1.086 16 1.498v128.278c-5.346-0.328-10.68-0.72-16-1.178v-128.598zM392 384.156c5.288 2.936 10.618 5.788 16 8.528v140.138c-5.366-2.084-10.694-4.254-16-6.484v-142.182zM616 447.434c5.318 0.244 10.654 0.386 16 0.468v128c-5.344-0.064-10.678-0.194-16-0.39v-128.078zM520 433.904c5.308 1.27 10.642 2.46 16 3.56v130.134c-5.35-0.87-10.684-1.804-16-2.808v-130.886zM552 440.51c5.31 0.916 10.648 1.718 16 2.466v128.996c-5.348-0.594-10.682-1.254-16-1.982v-129.48zM424 400.476c5.292 2.464 10.626 4.832 16 7.11v136.684c-5.358-1.754-10.694-3.568-16-5.464v-138.33zM488 425.15c5.306 1.642 10.636 3.21 16 4.678v131.736c-5.354-1.152-10.688-2.37-16-3.658v-132.756z" />
<glyph unicode="&#xe97f;" glyph-name="connection-weak" data-tags="connection, wifi, dualtone" horiz-adv-x="1280" d="M576 0c0 35.346 28.654 64 64 64s64-28.654 64-64-28.654-64-64-64-64 28.654-64 64zM840 677.83c5.352-1.432 10.686-2.918 16-4.466v132.452c-5.322 1.32-10.654 2.606-16 3.826v-131.812zM808 685.67c5.352-1.188 10.684-2.44 16-3.74v131.19c-5.324 1.112-10.654 2.188-16 3.202v-130.652zM936 645.108c5.36-2.238 10.694-4.532 16-6.89v137.94c-5.32 1.978-10.65 3.918-16 5.794v-136.844zM872 668.512c5.356-1.69 10.688-3.444 16-5.25v133.984c-5.322 1.532-10.652 3.028-16 4.46v-133.194zM904 657.618c5.358-1.956 10.69-3.972 16-6.048v135.804c-5.32 1.752-10.652 3.466-16 5.116v-134.872zM712 700.676c5.346-0.494 10.68-1.038 16-1.642v128.716c-5.324 0.518-10.658 0.98-16 1.402v-128.476zM648 703.952c5.342-0.054 10.676-0.168 16-0.332v128.060c-5.326 0.138-10.66 0.224-16 0.27v-127.998zM776 692.056c5.348-0.95 10.684-1.95 16-3.010v130.144c-5.324 0.91-10.656 1.778-16 2.59v-129.724zM744 697.060c5.348-0.72 10.68-1.504 16-2.334v129.332c-5.324 0.71-10.658 1.376-16 1.99v-128.988zM680 702.974c5.344-0.272 10.678-0.598 16-0.978v128.294c-5.324 0.326-10.66 0.592-16 0.824v-128.14zM1224 520l16 16v65.458c-5.284 4.774-10.618 9.48-16 14.116v-95.574zM1192 488l16 16v125.042c-5.29 4.346-10.622 8.632-16 12.85v-153.892zM1160 501.182c5.39-4.97 10.728-10.016 16-15.156v168.12c-5.292 3.958-10.626 7.85-16 11.686v-164.65zM1256 586.654v-34.654l16 16v3.114c-5.278 5.254-10.612 10.432-16 15.54zM968 770.048v-139.168c5.364-2.536 10.696-5.138 16-7.802v140.472c-5.32 2.214-10.65 4.392-16 6.498zM1000 614.806c5.366-2.854 10.7-5.776 16-8.762v143.46c-5.306 2.454-10.636 4.862-16 7.214v-141.912zM1032 596.776c5.37-3.198 10.704-6.464 16-9.798v146.968c-5.3 2.71-10.638 5.36-16 7.966v-145.136zM1096 554.164c5.378-3.986 10.712-8.044 16-12.178v155.828c-5.298 3.286-10.63 6.518-16 9.694v-153.344zM1128 529.116c5.386-4.448 10.718-8.98 16-13.586v161.46c-5.294 3.608-10.628 7.16-16 10.652v-158.526zM1064 576.626c5.374-3.572 10.708-7.214 16-10.928v151.040c-5.3 2.99-10.632 5.926-16 8.81v-148.922zM200 565.698c5.292 3.714 10.626 7.356 16 10.928v148.922c-5.366-2.882-10.7-5.82-16-8.81v-151.040zM616 703.62c5.324 0.162 10.658 0.278 16 0.332v128c-5.34-0.046-10.674-0.132-16-0.27v-128.062zM232 586.976c5.296 3.334 10.63 6.6 16 9.798v145.14c-5.362-2.608-10.7-5.256-16-7.966v-146.972zM136 515.528c5.282 4.606 10.614 9.138 16 13.586v158.528c-5.372-3.492-10.706-7.042-16-10.652v-161.462zM264 749.506v-143.46c5.3 2.986 10.634 5.908 16 8.762v141.914c-5.362-2.354-10.694-4.764-16-7.216zM8 568l16-16v34.656c-5.388-5.108-10.722-10.286-16-15.538v-3.118zM104 486.024c5.27 5.14 10.61 10.186 16 15.156v164.652c-5.374-3.836-10.708-7.728-16-11.686v-168.122zM296 623.080c5.304 2.662 10.636 5.266 16 7.802v139.168c-5.35-2.108-10.68-4.286-16-6.5v-140.47zM40 536l16-16v95.578c-5.382-4.636-10.716-9.342-16-14.116v-65.462zM72 504l16-16v153.89c-5.378-4.216-10.71-8.502-16-12.848v-125.042zM168 541.984c5.288 4.134 10.622 8.194 16 12.178v153.344c-5.368-3.174-10.702-6.408-16-9.694v-155.828zM328 638.216c5.306 2.36 10.642 4.654 16 6.89v136.846c-5.35-1.874-10.68-3.814-16-5.794v-137.942zM552 699.036c5.322 0.604 10.656 1.148 16 1.642v128.474c-5.342-0.422-10.676-0.884-16-1.402v-128.714zM584 701.996c5.322 0.38 10.656 0.706 16 0.978v128.14c-5.34-0.232-10.676-0.498-16-0.824v-128.294zM488 689.046c5.318 1.062 10.652 2.060 16 3.010v129.724c-5.344-0.812-10.676-1.68-16-2.59v-130.144zM520 694.726c5.32 0.83 10.652 1.614 16 2.334v128.988c-5.342-0.616-10.676-1.28-16-1.99v-129.332zM392 663.262c5.312 1.806 10.644 3.562 16 5.25v133.194c-5.346-1.432-10.678-2.926-16-4.46v-133.984zM360 651.57c5.31 2.076 10.644 4.092 16 6.048v134.872c-5.348-1.65-10.678-3.364-16-5.116v-135.804zM456 681.93c5.316 1.3 10.65 2.552 16 3.74v130.652c-5.344-1.014-10.676-2.090-16-3.202v-131.19zM424 673.364c5.314 1.548 10.648 3.034 16 4.466v131.812c-5.346-1.22-10.676-2.506-16-3.826v-132.452zM776 429.828c5.364-1.468 10.696-3.038 16-4.678v132.756c-5.312 1.29-10.646 2.506-16 3.658v-131.736zM808 419.896c5.364-1.858 10.706-3.776 16-5.812v135.184c-5.308 1.584-10.644 3.094-16 4.542v-133.914zM712 442.976c5.352-0.75 10.69-1.552 16-2.466v129.48c-5.318 0.728-10.652 1.388-16 1.982v-128.996zM680 446.452c5.352-0.412 10.684-0.922 16-1.498v128.596c-5.32 0.458-10.654 0.85-16 1.178v-128.276zM744 437.464c5.36-1.1 10.692-2.292 16-3.56v130.888c-5.316 1.004-10.648 1.938-16 2.808v-130.136zM840 407.586c5.374-2.28 10.708-4.646 16-7.11v138.33c-5.304 1.898-10.642 3.71-16 5.464v-136.684zM872 392.684c5.382-2.742 10.712-5.592 16-8.528v142.182c-5.304 2.23-10.634 4.4-16 6.484v-140.138zM1032 328l16 15.998v85.128c-5.278 4.382-10.606 8.686-16 12.884v-114.010zM1064 415.376v-55.376l16 16v24.748c-5.258 4.982-10.604 9.84-16 14.628zM1000 300.030c0.676-0.668 1.368-1.318 2.040-1.99l13.96 13.96v142.026c-5.282 3.852-10.618 7.614-16 11.292v-165.288zM904 374.908c5.392-3.256 10.718-6.632 16-10.096v147.002c-5.3 2.584-10.632 5.094-16 7.528v-144.434zM968 329.154c5.408-4.53 10.754-9.154 16-13.924v160.692c-5.292 3.386-10.62 6.71-16 9.932v-156.7zM648 447.902c5.346-0.082 10.682-0.224 16-0.468v128.078c-5.322 0.196-10.656 0.326-16 0.39v-128zM936 353.894c5.4-3.844 10.732-7.802 16-11.868v153.066c-5.292 2.964-10.63 5.838-16 8.646v-149.844zM456 414.084c5.294 2.036 10.636 3.954 16 5.81v133.914c-5.356-1.448-10.69-2.956-16-4.542v-135.182zM296 315.23c5.246 4.77 10.592 9.394 16 13.924v156.7c-5.38-3.222-10.708-6.546-16-9.932v-160.692zM264 312l13.962-13.96c0.672 0.672 1.362 1.32 2.038 1.988v165.29c-5.384-3.678-10.718-7.44-16-11.292v-142.026zM328 342.028c5.268 4.064 10.598 8.024 16 11.868v149.844c-5.37-2.808-10.708-5.682-16-8.646v-153.066zM360 364.81c5.28 3.464 10.608 6.842 16 10.1v144.432c-5.368-2.432-10.7-4.944-16-7.528v-147.004zM232 344l16-16v114.008c-5.396-4.198-10.722-8.5-16-12.884v-85.124zM200 376l16-16v55.374c-5.396-4.786-10.742-9.646-16-14.63v-24.744zM584 444.956c5.318 0.576 10.648 1.086 16 1.498v128.278c-5.346-0.328-10.68-0.72-16-1.178v-128.598zM392 384.156c5.288 2.936 10.618 5.788 16 8.528v140.138c-5.366-2.084-10.694-4.254-16-6.484v-142.182zM616 447.434c5.318 0.244 10.654 0.386 16 0.468v128c-5.344-0.064-10.678-0.194-16-0.39v-128.078zM520 433.904c5.308 1.27 10.642 2.46 16 3.56v130.134c-5.35-0.87-10.684-1.804-16-2.808v-130.886zM552 440.51c5.31 0.916 10.648 1.718 16 2.466v128.996c-5.348-0.594-10.682-1.254-16-1.982v-129.48zM424 400.476c5.292 2.464 10.626 4.832 16 7.11v136.684c-5.358-1.754-10.694-3.568-16-5.464v-138.33zM488 425.15c5.306 1.642 10.636 3.21 16 4.678v131.736c-5.354-1.152-10.688-2.37-16-3.658v-132.756zM648 191.864c5.376-0.166 10.71-0.504 16-0.998v128.364c-5.306 0.328-10.638 0.56-16 0.67v-128.036zM712 181.676c5.406-1.586 10.746-3.332 16-5.262v133.396c-5.292 1.246-10.628 2.368-16 3.39v-131.524zM680 188.868c5.39-0.85 10.724-1.872 16-3.054v130.092c-5.3 0.778-10.632 1.46-16 2.018v-129.056zM776 152.79c5.474-3.448 10.812-7.092 16-10.932v146.746c-5.274 2.284-10.608 4.446-16 6.494v-142.308zM744 169.9c5.436-2.426 10.772-5.042 16-7.828v138.704c-5.286 1.744-10.616 3.388-16 4.904v-135.78zM808 129c4.448-3.876 8.764-7.896 12.934-12.066l3.066 3.066v152.96c-5.26 2.884-10.596 5.644-16 8.286v-152.246zM904 214.594v-14.594l7.402 7.402c-2.434 2.434-4.906 4.824-7.402 7.192zM872 168l16 16v44.922c-5.216 4.422-10.55 8.71-16 12.856v-73.778zM840 136l16 16v101.322c-5.242 3.58-10.576 7.038-16 10.362v-127.684zM616 190.866c5.29 0.494 10.624 0.832 16 0.998v128.036c-5.362-0.11-10.694-0.342-16-0.67v-128.364zM424 152l16-16v127.684c-5.424-3.324-10.756-6.782-16-10.362v-101.322zM584 185.812c5.276 1.184 10.608 2.206 16 3.054v129.054c-5.368-0.556-10.7-1.24-16-2.018v-130.090zM376 200v14.594c-2.498-2.368-4.97-4.758-7.402-7.192l7.402-7.402zM456 120l3.066-3.066c4.17 4.17 8.486 8.19 12.934 12.066v152.246c-5.404-2.64-10.74-5.4-16-8.284v-152.962zM392 184l16-16v73.778c-5.45-4.144-10.784-8.432-16-12.856v-44.922zM488 141.856c5.186 3.84 10.524 7.484 16 10.932v142.31c-5.392-2.048-10.726-4.21-16-6.492v-146.75zM552 176.414c5.252 1.928 10.592 3.676 16 5.262v131.526c-5.372-1.024-10.708-2.144-16-3.39v-133.398zM520 162.072c5.23 2.788 10.564 5.4 16 7.828v135.78c-5.384-1.516-10.714-3.16-16-4.904v-138.704z" />
<glyph unicode="&#xe989;" glyph-name="mic" data-tags="mic, microphone, voice, audio" d="M480 192c88.366 0 160 71.634 160 160v384c0 88.366-71.634 160-160 160s-160-71.634-160-160v-384c0-88.366 71.636-160 160-160zM704 448v-96c0-123.71-100.29-224-224-224-123.712 0-224 100.29-224 224v96h-64v-96c0-148.238 112.004-270.3 256-286.22v-129.78h-128v-64h320v64h-128v129.78c143.994 15.92 256 137.982 256 286.22v96h-64z" />
<glyph unicode="&#xe98a;" glyph-name="mic-muted" data-tags="mic-off, microphone, mute, audio" d="M640 736c0 88.366-71.632 160-160 160-88.366 0-160-71.634-160-160v-344.236l320 320v24.236zM257.174 328.938c-0.774 7.582-1.174 15.274-1.174 23.062v96h-64v-96c0-26.9 3.706-52.934 10.604-77.632l54.57 54.57zM704 352c0-123.71-100.29-224-224-224-66.626 0-126.43 29.114-167.458 75.288l45.38 45.38c29.336-34.648 73.118-56.668 122.078-56.668 88.368 0 160 71.632 160 160v178.746l256.626 256.628-45.254 45.254-211.372-211.372-638-640.63 45.254-45.254 219.972 222.6c45.908-50.31 109.398-84.302 180.774-92.194v-129.778h-128v-64h320v64h-128v129.78c143.994 15.92 256 137.982 256 286.22v96h-64v-96z" />
<glyph unicode="&#xe993;" glyph-name="book" data-tags="book, read, reading" d="M896 768v-832h-672c-53.026 0-96 42.98-96 96s42.974 96 96 96h608v768h-640c-70.398 0-128-57.6-128-128v-768c0-70.4 57.602-128 128-128h768v896h-64zM224.056 64v0c-0.018-0.002-0.038 0-0.056 0-17.672 0-32-14.326-32-32s14.328-32 32-32c0.018 0 0.038 0.002 0.056 0.002v-0.002h607.89v64h-607.89z" />
<glyph unicode="&#xe99d;" glyph-name="file-empty" data-tags="file-empty, file, document, paper, page, new, empty, blank" d="M917.806 666.924c-22.212 30.292-53.174 65.7-87.178 99.704s-69.412 64.964-99.704 87.178c-51.574 37.82-76.592 42.194-90.924 42.194h-496c-44.112 0-80-35.888-80-80v-864c0-44.112 35.888-80 80-80h736c44.112 0 80 35.888 80 80v624c0 14.332-4.372 39.35-42.194 90.924zM785.374 721.374c30.7-30.7 54.8-58.398 72.58-81.374h-153.954v153.946c22.984-17.78 50.678-41.878 81.374-72.572zM896-48c0-8.672-7.328-16-16-16h-736c-8.672 0-16 7.328-16 16v864c0 8.672 7.328 16 16 16 0 0 495.956 0.002 496 0v-224c0-17.672 14.326-32 32-32h224v-624z" />
<glyph unicode="&#xe99f;" glyph-name="files-empty" data-tags="files-empty, files, documents, papers, pages" d="M917.806 538.924c-22.21 30.292-53.174 65.7-87.178 99.704s-69.412 64.964-99.704 87.178c-51.574 37.82-76.592 42.194-90.924 42.194h-368c-44.114 0-80-35.888-80-80v-736c0-44.112 35.886-80 80-80h608c44.112 0 80 35.888 80 80v496c0 14.332-4.372 39.35-42.194 90.924zM785.374 593.374c30.7-30.7 54.8-58.398 72.58-81.374h-153.954v153.946c22.982-17.78 50.678-41.878 81.374-72.572v0zM896-48c0-8.672-7.328-16-16-16h-608c-8.672 0-16 7.328-16 16v736c0 8.672 7.328 16 16 16 0 0 367.956 0.002 368 0v-224c0-17.672 14.324-32 32-32h224v-496zM602.924 853.804c-51.574 37.822-76.592 42.196-90.924 42.196h-368c-44.112 0-80-35.888-80-80v-736c0-38.632 27.528-70.958 64-78.39v814.39c0 8.672 7.328 16 16 16h486.876c-9.646 7.92-19.028 15.26-27.952 21.804z" />
<glyph unicode="&#xe9ad;" glyph-name="file-text" data-tags="file-text, file, document, list, paper, page" d="M917.806 666.924c-22.212 30.292-53.174 65.7-87.178 99.704s-69.412 64.964-99.704 87.178c-51.574 37.82-76.592 42.194-90.924 42.194h-496c-44.112 0-80-35.888-80-80v-864c0-44.112 35.888-80 80-80h736c44.112 0 80 35.888 80 80v624c0 14.332-4.372 39.35-42.194 90.924zM785.374 721.374c30.7-30.7 54.8-58.398 72.58-81.374h-153.954v153.946c22.984-17.78 50.678-41.878 81.374-72.572zM896-48c0-8.672-7.328-16-16-16h-736c-8.672 0-16 7.328-16 16v864c0 8.672 7.328 16 16 16 0 0 495.956 0.002 496 0v-224c0-17.672 14.326-32 32-32h224v-624zM736 64h-448c-17.672 0-32 14.326-32 32s14.328 32 32 32h448c17.674 0 32-14.326 32-32s-14.326-32-32-32zM736 192h-448c-17.672 0-32 14.326-32 32s14.328 32 32 32h448c17.674 0 32-14.326 32-32s-14.326-32-32-32zM736 320h-448c-17.672 0-32 14.326-32 32s14.328 32 32 32h448c17.674 0 32-14.326 32-32s-14.326-32-32-32z" />
<glyph unicode="&#xe9bf;" glyph-name="file-presentation" data-tags="file-presentation, file, document, file-charts, file-powerpoint, file-type, file-format" d="M192 384h192v-64h-192v64zM192 256h192v-64h-192v64zM192 128h192v-64h-192v64zM576 192h188.792c-14.826-73.032-79.386-128-156.792-128-88.368 0-160 71.632-160 160 0 77.406 54.968 141.964 128 156.792v-188.792zM672 448c88.366 0 160-71.632 160-160 0-10.958-1.11-21.66-3.208-32h-188.792v188.792c10.34 2.1 21.042 3.208 32 3.208zM917.806 666.924c-22.21 30.292-53.174 65.7-87.178 99.704s-69.412 64.964-99.704 87.178c-51.574 37.82-76.592 42.194-90.924 42.194h-496c-44.112 0-80-35.888-80-80v-864c0-44.112 35.886-80 80-80h736c44.112 0 80 35.888 80 80v624c0 14.332-4.372 39.35-42.194 90.924v0zM785.374 721.374c30.7-30.7 54.8-58.398 72.58-81.374h-153.954v153.946c22.982-17.78 50.678-41.878 81.374-72.572v0zM896-48c0-8.672-7.328-16-16-16h-736c-8.672 0-16 7.328-16 16v864c0 8.672 7.328 16 16 16 0 0 495.956 0.002 496 0v-224c0-17.672 14.324-32 32-32h224v-624z" />
<glyph unicode="&#xe9cf;" glyph-name="stack" data-tags="stack, layers" d="M512 320l-512 256 512 256 512-256zM921.444 435.278l102.556-51.278-512-256-512 256 102.556 51.278 409.444-204.722zM921.444 243.278l102.556-51.278-512-256-512 256 102.556 51.278 409.444-204.722z" />
<glyph unicode="&#xe9d4;" glyph-name="folder-plus" data-tags="folder-plus, directory, folder-add" d="M960 704h-896l64 128h352l32-64h416zM500 160c0-58.784 17.008-113.662 46.342-160h-482.342l-64 640h1024l-25.526-255.248c-52.93 46.796-122.436 75.248-198.474 75.248-165.42 0-300-134.58-300-300zM800 384c-123.71 0-224-100.29-224-224s100.29-224 224-224 224 100.29 224 224-100.29 224-224 224zM832 128v-128h-64v128h-128v64h128v128h64v-128h128v-64h-128z" />
<glyph unicode="&#xe9d6;" glyph-name="folder-minus" data-tags="folder-minus, directory, folder-remove" d="M960 704h-896l64 128h352l32-64h416zM500 160c0-58.784 17.008-113.662 46.342-160h-482.342l-64 640h1024l-25.526-255.248c-52.93 46.796-122.436 75.248-198.474 75.248-165.42 0-300-134.58-300-300zM800 384c-123.71 0-224-100.29-224-224s100.29-224 224-224 224 100.29 224 224-100.29 224-224 224zM640 128v64h320v-64h-320z" />
<glyph unicode="&#xe9db;" glyph-name="folder" data-tags="folder, directory, category, browse" d="M448 768l128-128h448v-704h-1024v832z" />
<glyph unicode="&#xe9dc;" glyph-name="folder-open" data-tags="folder-open, directory, category, browse" d="M832-64l192 512h-832l-192-512zM128 512l-128-576v832h288l128-128h416v-128z" />
<glyph unicode="&#xe9ee;" glyph-name="tag" data-tags="price-tag" d="M976 896h-384c-26.4 0-63.274-15.274-81.942-33.942l-476.116-476.116c-18.668-18.668-18.668-49.214 0-67.882l412.118-412.118c18.668-18.668 49.214-18.668 67.882 0l476.118 476.118c18.666 18.666 33.94 55.54 33.94 81.94v384c0 26.4-21.6 48-48 48zM736 512c-53.020 0-96 42.98-96 96s42.98 96 96 96 96-42.98 96-96-42.98-96-96-96z" />
<glyph unicode="&#xe9ef;" glyph-name="tags" data-tags="price-tags" horiz-adv-x="1280" d="M1232 896h-384c-26.4 0-63.274-15.274-81.942-33.942l-476.116-476.116c-18.668-18.668-18.668-49.214 0-67.882l412.118-412.118c18.668-18.668 49.214-18.668 67.882 0l476.118 476.118c18.666 18.666 33.94 55.54 33.94 81.94v384c0 26.4-21.6 48-48 48zM992 512c-53.020 0-96 42.98-96 96s42.98 96 96 96 96-42.98 96-96-42.98-96-96-96zM128 352l544 544h-80c-26.4 0-63.274-15.274-81.942-33.942l-476.116-476.116c-18.668-18.668-18.668-49.214 0-67.882l412.118-412.118c18.668-18.668 49.214-18.668 67.882 0l30.058 30.058-416 416z" />
<glyph unicode="&#xe9f6;" glyph-name="barcode" data-tags="barcode" d="M0 704h128v-640h-128zM192 704h64v-640h-64zM320 704h64v-640h-64zM512 704h64v-640h-64zM768 704h64v-640h-64zM960 704h64v-640h-64zM640 704h32v-640h-32zM448 704h32v-640h-32zM864 704h32v-640h-32z" />
<glyph unicode="&#xe9f8;" glyph-name="qrcode" data-tags="qrcode" d="M320 832h-256v-256h256v256zM384 896v0-384h-384v384h384zM128 768h128v-128h-128zM960 832h-256v-256h256v256zM1024 896v0-384h-384v384h384zM768 768h128v-128h-128zM320 192h-256v-256h256v256zM384 256v0-384h-384v384h384zM128 128h128v-128h-128zM448 896h64v-64h-64zM512 832h64v-64h-64zM448 768h64v-64h-64zM512 704h64v-64h-64zM448 640h64v-64h-64zM512 576h64v-64h-64zM448 512h64v-64h-64zM448 384h64v-64h-64zM512 320h64v-64h-64zM448 256h64v-64h-64zM512 192h64v-64h-64zM448 128h64v-64h-64zM512 64h64v-64h-64zM448 0h64v-64h-64zM512-64h64v-64h-64zM960 384h64v-64h-64zM64 384h64v-64h-64zM128 448h64v-64h-64zM0 448h64v-64h-64zM256 448h64v-64h-64zM320 384h64v-64h-64zM384 448h64v-64h-64zM576 384h64v-64h-64zM640 448h64v-64h-64zM704 384h64v-64h-64zM768 448h64v-64h-64zM832 384h64v-64h-64zM896 448h64v-64h-64zM960 256h64v-64h-64zM576 256h64v-64h-64zM640 320h64v-64h-64zM704 256h64v-64h-64zM832 256h64v-64h-64zM896 320h64v-64h-64zM960 128h64v-64h-64zM576 128h64v-64h-64zM640 192h64v-64h-64zM768 192h64v-64h-64zM832 128h64v-64h-64zM896 192h64v-64h-64zM960 0h64v-64h-64zM640 64h64v-64h-64zM704 0h64v-64h-64zM768 64h64v-64h-64zM832 0h64v-64h-64zM640-64h64v-64h-64zM768-64h64v-64h-64zM896-64h64v-64h-64z" />
<glyph unicode="&#xe9fe;" glyph-name="dollar-circle" data-tags="coin-dollar, money, cash, currency-dollar" d="M480 832c-265.096 0-480-214.904-480-480 0-265.098 214.904-480 480-480 265.098 0 480 214.902 480 480 0 265.096-214.902 480-480 480zM480-32c-212.078 0-384 171.922-384 384s171.922 384 384 384c212.078 0 384-171.922 384-384s-171.922-384-384-384zM512 384v128h128v64h-128v64h-64v-64h-128v-256h128v-128h-128v-64h128v-64h64v64h128.002l-0.002 256h-128zM448 384h-64v128h64v-128zM576.002 192h-64.002v128h64.002v-128z" />
<glyph unicode="&#xe9ff;" glyph-name="cart" data-tags="cart, purchase, ecommerce, shopping" d="M847.218 320c35.2 0 71.912 27.692 81.582 61.54l92.836 324.924c9.67 33.844-11.218 61.536-46.418 61.536h-655.218c0 70.692-57.308 128-128 128h-192v-128h192v-544c0-53.020 42.98-96 96-96h608c35.346 0 64 28.654 64 64s-28.654 64-64 64h-576v64h527.218zM320 640h578.806l-54.86-192h-523.946v192zM384-32c0-53.019-42.981-96-96-96s-96 42.981-96 96c0 53.019 42.981 96 96 96s96-42.981 96-96zM960-32c0-53.019-42.981-96-96-96s-96 42.981-96 96c0 53.019 42.981 96 96 96s96-42.981 96-96z" />
<glyph unicode="&#xea16;" glyph-name="credit-card" data-tags="credit-card, money, payment, ecommerce" d="M928 768h-832c-52.8 0-96-43.2-96-96v-576c0-52.8 43.2-96 96-96h832c52.8 0 96 43.2 96 96v576c0 52.8-43.2 96-96 96zM192 128h-64v128h64v-128zM320 128h-64v128h64v-128zM448 128h-64v128h64v-128zM992 384h-960v192h960v-192z" />
<glyph unicode="&#xea18;" glyph-name="calculator" data-tags="calculator, compute, math, arithmetic, sum" d="M928-128h-896c-17.672 0-32 14.326-32 32v960c0 17.672 14.328 32 32 32h896c17.674 0 32-14.328 32-32v-960c0-17.674-14.326-32-32-32zM64-64h832v896h-832v-896zM128 768h704v-192h-704v192zM128 512h128v-128h-128v128zM320 512h128v-128h-128v128zM512 512h128v-128h-128v128zM128 320h128v-128h-128v128zM320 320h128v-128h-128v128zM512 320h128v-128h-128v128zM128 128h128v-128h-128v128zM320 128h128v-128h-128v128zM512 128h128v-128h-128v128zM704 320h128v-320h-128v320zM704 512h128v-128h-128v128z" />
<glyph unicode="&#xea1d;" glyph-name="phone" data-tags="phone, telephone, contact, support, call" d="M704 256c-64-64-64-128-128-128s-128 64-192 128-128 128-128 192 64 64 128 128-128 256-192 256-192-192-192-192c0-128 131.5-387.5 256-512s384-256 512-256c0 0 192 128 192 192s-192 256-256 192z" />
<glyph unicode="&#xea2b;" glyph-name="address-book" data-tags="address-book, contact, book, contacts" d="M192 896v-1024h768v1024h-768zM576 639.67c70.51 0 127.67-57.16 127.67-127.67s-57.16-127.67-127.67-127.67-127.67 57.16-127.67 127.67 57.16 127.67 127.67 127.67v0zM768 128h-384v64c0 70.696 57.306 128 128 128v0h128c70.696 0 128-57.304 128-128v-64zM64 832h96v-192h-96v192zM64 576h96v-192h-96v192zM64 320h96v-192h-96v192zM64 64h96v-192h-96v192z" />
<glyph unicode="&#xea2f;" glyph-name="at-sign" data-tags="at-sign, email" d="M874.040 746.040c-96.706 96.702-225.28 149.96-362.040 149.96s-265.334-53.258-362.040-149.96c-96.702-96.706-149.96-225.28-149.96-362.040s53.258-265.334 149.96-362.040c96.706-96.702 225.28-149.96 362.040-149.96 76.76 0 150.6 16.59 219.466 49.306 31.928 15.168 45.512 53.346 30.346 85.272s-53.346 45.508-85.272 30.346c-51.572-24.502-106.93-36.924-164.54-36.924-211.738 0-384 172.262-384 384s172.262 384 384 384 384-172.262 384-384v-64c0-35.29-28.71-64-64-64s-64 28.71-64 64v256c0 35.346-28.654 64-64 64-25.982 0-48.332-15.494-58.36-37.736-38.926 23.92-84.696 37.736-133.64 37.736-141.16 0-256-114.84-256-256 0-141.158 114.84-256 256-256 66.908 0 127.892 25.812 173.548 67.99 35.246-41.56 87.818-67.99 146.452-67.99 105.87 0 192 86.13 192 192v64c0 136.76-53.258 265.334-149.96 362.040zM512 256c-70.58 0-128 57.42-128 128s57.42 128 128 128c70.58 0 128-57.42 128-128s-57.42-128-128-128z" />
<glyph unicode="&#xea32;" glyph-name="envelope" data-tags="envelop, mail, email, contact, letter" d="M960 768h-896c-35.2 0-64-28.8-64-64v-640c0-35.2 28.8-64 64-64h896c35.2 0 64 28.8 64 64v640c0 35.2-28.8 64-64 64zM896 640v-46l-384-226.286-384 226.286v46h768zM128 128v354.572l384-226.286 384 226.286v-354.572h-768z" />
<glyph unicode="&#xea38;" glyph-name="location" data-tags="location, map-marker, pin" d="M512 896c-176.732 0-320-143.268-320-320 0-320 320-704 320-704s320 384 320 704c0 176.732-143.27 320-320 320zM512 384c-106.040 0-192 85.96-192 192s85.96 192 192 192 192-85.96 192-192-85.96-192-192-192z" />
<glyph unicode="&#xea48;" glyph-name="map" data-tags="map, guide" d="M0 704l320 128v-768l-320-128zM384 864l320-192v-736l-320 160zM768 672l256 192v-768l-256-192z" />
<glyph unicode="&#xea4c;" glyph-name="history" data-tags="history, time, archive, past" horiz-adv-x="1088" d="M640 832c247.424 0 448-200.576 448-448s-200.576-448-448-448v96c94.024 0 182.418 36.614 248.902 103.098s103.098 154.878 103.098 248.902c0 94.022-36.614 182.418-103.098 248.902s-154.878 103.098-248.902 103.098c-94.022 0-182.418-36.614-248.902-103.098-51.14-51.138-84.582-115.246-97.306-184.902h186.208l-224-256-224 256h164.57c31.060 217.102 217.738 384 443.43 384zM832 448v-128h-256v320h128v-192z" />
<glyph unicode="&#xea4e;" glyph-name="clock" data-tags="clock, time, schedule" d="M512 896c-282.77 0-512-229.23-512-512s229.23-512 512-512 512 229.23 512 512-229.23 512-512 512zM658.744 146.744l-210.744 210.746v282.51h128v-229.49l173.256-173.254-90.512-90.512z" />
<glyph unicode="&#xea52;" glyph-name="watch" data-tags="watch, time, wrist-watch, clock" d="M608 384h-96v160c0 17.672-14.328 32-32 32s-32-14.328-32-32v-192c0-17.674 14.328-32 32-32h128c17.674 0 32 14.326 32 32s-14.326 32-32 32zM896 384c0 154.982-91.832 288.482-224.036 349.15h0.036l-32 162.85h-256l-32-162.85h0.036c-132.204-60.666-224.036-194.166-224.036-349.15 0-154.978 91.826-288.476 224.026-349.144l-0.028-0.004 32.002-162.852h256l32 162.852h-0.034c132.202 60.666 224.034 194.168 224.034 349.148zM512 96c-159.058 0-288 128.942-288 288s128.942 288 288 288c159.056 0 288-128.942 288-288s-128.942-288-288-288z" />
<glyph unicode="&#xea53;" glyph-name="alarm" data-tags="alarm, time, clock" d="M512 768c-247.424 0-448-200.576-448-448s200.576-448 448-448 448 200.576 448 448-200.576 448-448 448zM512-40c-198.824 0-360 161.178-360 360 0 198.824 161.176 360 360 360 198.822 0 360-161.176 360-360 0-198.822-161.178-360-360-360zM934.784 608.826c16.042 28.052 25.216 60.542 25.216 95.174 0 106.040-85.96 192-192 192-61.818 0-116.802-29.222-151.92-74.596 131.884-27.236 245.206-105.198 318.704-212.578v0zM407.92 821.404c-35.116 45.374-90.102 74.596-151.92 74.596-106.040 0-192-85.96-192-192 0-34.632 9.174-67.122 25.216-95.174 73.5 107.38 186.822 185.342 318.704 212.578zM512 320v256h-64v-320h256v64z" />
<glyph unicode="&#xea54;" glyph-name="alarm-add" data-tags="alarm-add, alarm, alarm-plus, clock" d="M512 768c-247.424 0-448-200.576-448-448s200.576-448 448-448 448 200.576 448 448-200.576 448-448 448zM512-40c-198.824 0-360 161.178-360 360 0 198.824 161.176 360 360 360 198.822 0 360-161.176 360-360 0-198.822-161.178-360-360-360zM934.784 608.826c16.042 28.052 25.216 60.542 25.216 95.174 0 106.040-85.96 192-192 192-61.818 0-116.802-29.222-151.92-74.596 131.884-27.236 245.206-105.198 318.704-212.578v0zM407.92 821.404c-35.116 45.374-90.102 74.596-151.92 74.596-106.040 0-192-85.96-192-192 0-34.632 9.174-67.122 25.216-95.174 73.5 107.38 186.822 185.342 318.704 212.578zM704 384h-128v128h-128v-128h-128v-128h128v-128h128v128h128z" />
<glyph unicode="&#xea55;" glyph-name="alarm-check" data-tags="alarm-check, alarm, alarm-tick, clock" d="M512 768c-247.424 0-448-200.576-448-448s200.576-448 448-448 448 200.576 448 448-200.576 448-448 448zM512-40c-198.824 0-360 161.178-360 360 0 198.824 161.176 360 360 360 198.822 0 360-161.176 360-360 0-198.822-161.178-360-360-360zM934.784 608.826c16.042 28.052 25.216 60.542 25.216 95.174 0 106.040-85.96 192-192 192-61.818 0-116.802-29.222-151.92-74.596 131.884-27.236 245.206-105.198 318.704-212.578v0zM407.92 821.404c-35.116 45.374-90.102 74.596-151.92 74.596-106.040 0-192-85.96-192-192 0-34.632 9.174-67.122 25.216-95.174 73.5 107.38 186.822 185.342 318.704 212.578zM704 480l-256-256-96 96-64-64 160-160 320 320z" />
<glyph unicode="&#xea56;" glyph-name="alarm-cancel" data-tags="alarm-cancel, alarm, time, alarm-cross, clock" d="M512 768c-247.424 0-448-200.576-448-448s200.576-448 448-448 448 200.576 448 448-200.576 448-448 448zM512-40c-198.824 0-360 161.178-360 360 0 198.824 161.176 360 360 360 198.822 0 360-161.176 360-360 0-198.822-161.178-360-360-360zM934.784 608.826c16.042 28.052 25.216 60.542 25.216 95.174 0 106.040-85.96 192-192 192-61.818 0-116.802-29.222-151.92-74.596 131.884-27.236 245.206-105.198 318.704-212.578v0zM407.92 821.404c-35.116 45.374-90.102 74.596-151.92 74.596-106.040 0-192-85.96-192-192 0-34.632 9.174-67.122 25.216-95.174 73.5 107.38 186.822 185.342 318.704 212.578zM733.256 189.256l-90.512-90.512-130.744 130.746-130.746-130.744-90.51 90.51 130.746 130.744-130.744 130.746 90.508 90.508 130.746-130.744 130.744 130.746 90.512-90.51-130.746-130.746 130.746-130.744z" />
<glyph unicode="&#xea58;" glyph-name="bell" data-tags="bell, alarm, notification" d="M1024 64c-106.042 0-192 85.96-192 192v285.090c0 140.738-109.942 258.128-256 285.084v69.826h-128v-69.824c-146.064-26.958-256-144.346-256-285.084v-285.092c0-106.040-85.962-192-192-192v-64h429.598c-5.208-11.424-8.11-24.118-8.11-37.49 0-49.986 40.524-90.51 90.512-90.51 49.984 0 90.51 40.524 90.51 90.51 0 13.376-2.902 26.066-8.112 37.49h429.602v64z" />
<glyph unicode="&#xea62;" glyph-name="calendar" data-tags="calendar, date, schedule, time, day" d="M832 704h-64v-128h-192v128h-192v-128h-192v128h-64c-35.2 0-64-28.8-64-64v-704c0-35.2 28.8-64 64-64h704c35.2 0 64 28.8 64 64v704c0 35.2-28.8 64-64 64zM256-64h-127.886c-0.040 0.034-0.082 0.076-0.114 0.116v127.884h128v-128zM256 128h-128v128h128v-128zM256 320h-128v128h128v-128zM448-64h-128v128h128v-128zM448 128h-128v128h128v-128zM448 320h-128v128h128v-128zM640-64h-128v128h128v-128zM640 128h-128v128h128v-128zM640 320h-128v128h128v-128zM832-63.884c-0.034-0.040-0.076-0.082-0.116-0.116h-127.884v128h128v-127.884zM832 128h-128v128h128v-128zM832 320h-128v128h128v-128zM320 768c0 17.672-14.328 32-32 32s-32-14.328-32-32v-128h64v128zM704 768c0 17.672-14.328 32-32 32s-32-14.328-32-32v-128h64v128z" />
<glyph unicode="&#xea66;" glyph-name="printer" data-tags="printer, print" d="M256 832h512v-128h-512v128zM960 640h-896c-35.2 0-64-28.8-64-64v-320c0-35.2 28.794-64 64-64h192v-256h512v256h192c35.2 0 64 28.8 64 64v320c0 35.2-28.8 64-64 64zM128 448c-35.346 0-64 28.654-64 64s28.654 64 64 64 64-28.654 64-64-28.652-64-64-64zM704 0h-384v320h384v-320z" />
<glyph unicode="&#xea69;" glyph-name="mouse" data-tags="mouse, click" d="M640 817.142v-305.142h-256v305.142c-95.598-22.234-192-73.19-192-177.142v-424c0-154.636 143.268-280 320-280 176.726 0 320 125.364 320 280v424c0 103.952-96.402 154.908-192 177.142zM576 828.134c-23.446 2.708-45.358 3.866-64 3.866-18.64 0-40.552-1.158-64-3.866v-252.134h128v252.134z" />
<glyph unicode="&#xea73;" glyph-name="display" data-tags="display, screen, monitor, computer, desktop, pc" d="M1024 64v768h-1024v-768h448v-64h-192v-64h512v64h-192v64h448zM128 704h768v-512h-768v512z" />
<glyph unicode="&#xea74;" glyph-name="laptop" data-tags="laptop, computer, pc" d="M896 192v512c0 35.2-28.8 64-64 64h-640c-35.2 0-64-28.8-64-64v-512h-128v-192h1024v192h-128zM640 64h-256v64h256v-64zM832 192h-640v511.886c0.034 0.040 0.076 0.082 0.114 0.114h639.77c0.040-0.034 0.082-0.076 0.116-0.116v-511.884z" />
<glyph unicode="&#xea75;" glyph-name="mobile" data-tags="mobile, cell-phone, handheld" d="M736 896h-448c-52.8 0-96-43.2-96-96v-832c0-52.8 43.2-96 96-96h448c52.8 0 96 43.2 96 96v832c0 52.8-43.2 96-96 96zM384 848h256v-32h-256v32zM512-64c-35.346 0-64 28.654-64 64s28.654 64 64 64 64-28.654 64-64-28.654-64-64-64zM768 128h-512v640h512v-640z" />
<glyph unicode="&#xea76;" glyph-name="mobile-large" data-tags="mobile, cell-phone, handheld, tablet, phablet" d="M768 896h-576c-35.2 0-64-28.798-64-64v-896c0-35.2 28.798-64 64-64h576c35.2 0 64 28.8 64 64v896c0 35.202-28.8 64-64 64zM480-81.782c-27.492 0-49.782 22.29-49.782 49.782s22.29 49.782 49.782 49.782 49.782-22.29 49.782-49.782-22.29-49.782-49.782-49.782zM768 64h-576v704h576v-704z" />
<glyph unicode="&#xea77;" glyph-name="tablet" data-tags="tablet, mobile" d="M800 896h-640c-52.8 0-96-43.2-96-96v-832c0-52.8 43.2-96 96-96h640c52.8 0 96 43.2 96 96v832c0 52.8-43.2 96-96 96zM480-96c-17.672 0-32 14.326-32 32s14.328 32 32 32 32-14.326 32-32-14.328-32-32-32zM768 0h-576v768h576v-768z" />
<glyph unicode="&#xea84;" glyph-name="download" data-tags="download, save, store, arrow" d="M512 320l256 256h-192v256h-128v-256h-192zM744.726 424.728l-71.74-71.742 260.080-96.986-421.066-157.018-421.066 157.018 260.080 96.986-71.742 71.742-279.272-104.728v-256l512-192 512 192v256z" />
<glyph unicode="&#xea85;" glyph-name="upload" data-tags="upload, load, arrow" d="M448 320h128v256h192l-256 256-256-256h192zM640 464v-98.712l293.066-109.288-421.066-157.018-421.066 157.018 293.066 109.288v98.712l-384-144v-256l512-192 512 192v256z" />
<glyph unicode="&#xea86;" glyph-name="disk" data-tags="floppy-disk, save" d="M864 896h-832c-17.6 0-32-14.4-32-32v-960c0-17.6 14.4-32 32-32h960c17.6 0 32 14.4 32 32v832l-160 160zM256 864h512v-256c0-17.6-14.4-32-32-32h-448c-17.6 0-32 14.4-32 32v256zM896-96h-768v416c0 35.348 28.654 64 64 64h640c35.346 0 64-28.652 64-64v-416zM576 832h128v-192h-128v192zM256 320h512v-64h-512v64zM256 192h512v-64h-512v64zM256 64h512v-64h-512v64z" />
<glyph unicode="&#xea87;" glyph-name="disks" data-tags="floppy-disks, save, save-all" d="M704 512h64v-128h-64v128zM864 576h-160v160l-160 160h-512c-17.6 0-32-14.4-32-32v-640c0-17.6 14.4-32 32-32h288v-288c0-17.6 14.4-32 32-32h640c17.6 0 32 14.4 32 32v512l-160 160zM832 544v-192c0-17.6-14.4-32-32-32h-256c-17.6 0-32 14.4-32 32v192h320zM320 256h-192v160c0 17.672 14.328 32 32 32h160v-192zM224 640c-17.6 0-32 14.4-32 32v192h320v-192c0-17.6-14.4-32-32-32h-256zM896-64h-448v160c0 17.674 14.328 32 32 32h384c17.674 0 32-14.326 32-32v-160zM384 832h64v-128h-64v128z" />
<glyph unicode="&#xea8e;" glyph-name="drive" data-tags="drive, save, hdd, hard-disk" d="M192 0h640c106.038 0 192 85.96 192 192h-1024c0-106.040 85.962-192 192-192zM832 128h64v-64h-64v64zM960 768h-896l-64-512h1024z" />
<glyph unicode="&#xea8f;" glyph-name="server" data-tags="server, drives" d="M832 896h-640l-192-256h1024l-192 256zM0 576v-192h1024v192h-1024zM960 448h-64v64h64v-64zM0 320v-192h1024v192h-1024zM960 192h-64v64h64v-64zM0 64v-192h1024v192h-1024zM960-64h-64v64h64v-64z" />
<glyph unicode="&#xea90;" glyph-name="database" data-tags="database, db, server, host, storage, save, datecenter" d="M512 896c-282.77 0-512-71.634-512-160v-128c0-88.366 229.23-160 512-160s512 71.634 512 160v128c0 88.366-229.23 160-512 160zM512 352c-282.77 0-512 71.634-512 160v-192c0-88.366 229.23-160 512-160s512 71.634 512 160v192c0-88.366-229.23-160-512-160zM512 64c-282.77 0-512 71.634-512 160v-192c0-88.366 229.23-160 512-160s512 71.634 512 160v192c0-88.366-229.23-160-512-160z" />
<glyph unicode="&#xeaa6;" glyph-name="rotate-ccw" data-tags="rotate-ccw, ccw, arrow" d="M128 320c0 247.422 200.576 448 448 448s448-200.578 448-448c0-173.374-98.492-323.73-242.566-398.208 106.62 65.99 178.566 190.926 178.566 334.208 0 212.078-157.596 384-352 384-174.412 0-319.154-138.392-347.086-320h123.086l-192-224-192 224h128z" />
<glyph unicode="&#xeaa7;" glyph-name="rotate" data-tags="rotate-cw, cw, arrow" d="M896 320c0 247.422-200.576 448-448 448s-448-200.578-448-448c0-173.374 98.492-323.73 242.566-398.208-106.62 65.99-178.566 190.926-178.566 334.208 0 212.078 157.596 384 352 384 174.412 0 319.154-138.392 347.086-320h-123.086l192-224 192 224h-128z" />
<glyph unicode="&#xeaaf;" glyph-name="flip-vertical" data-tags="flip-vertical, mirror" d="M54.628 566.628c-9.154 9.154-22.918 11.888-34.874 6.936-11.958-4.952-19.754-16.622-19.754-29.564v-640c0-12.944 7.796-24.612 19.754-29.564 3.96-1.64 8.116-2.436 12.24-2.436 8.328 0 16.512 3.252 22.634 9.374l320 320c12.496 12.496 12.496 32.758 0 45.254l-320 320zM480 448c-17.672 0-32 14.328-32 32v64c0 17.672 14.328 32 32 32s32-14.328 32-32v-64c0-17.672-14.328-32-32-32zM480 256c-17.672 0-32 14.326-32 32v64c0 17.674 14.328 32 32 32s32-14.326 32-32v-64c0-17.674-14.328-32-32-32zM480 64c-17.672 0-32 14.326-32 32v64c0 17.674 14.328 32 32 32s32-14.326 32-32v-64c0-17.674-14.328-32-32-32zM480-128c-17.672 0-32 14.326-32 32v64c0 17.674 14.328 32 32 32s32-14.326 32-32v-64c0-17.674-14.328-32-32-32zM940.246 573.566c-3.96 1.64-8.118 2.436-12.238 2.436-8.328 0-16.514-3.252-22.636-9.374l-320-320c-12.496-12.496-12.496-32.758 0-45.254l320-320.002c9.156-9.152 22.918-11.888 34.876-6.936s19.752 16.622 19.752 29.566v640c0 12.944-7.796 24.612-19.754 29.564zM888 0.57l-223.432 223.432 223.432 223.43v-446.862zM735.994 703.994c-60.372 80.454-154.8 128.006-255.994 128.006-107.016 0-206.49-53.158-266.092-142.198-9.832-14.686-5.896-34.562 8.792-44.392 14.69-9.834 34.564-5.894 44.392 8.792 47.698 71.256 127.29 113.798 212.908 113.798 84.008 0 162.196-40.978 210.166-109.834l-82.166-82.166h224v224l-96.006-96.006z" />
<glyph unicode="&#xeab8;" glyph-name="align-right" data-tags="align-right, align" d="M128 256h576v-128h-576v128zM64 320v0-256h704v256h-704zM960 896h-128v-1024h128zM768 704h-448v-256h448z" />
<glyph unicode="&#xeab9;" glyph-name="align-top" data-tags="align-top, align" d="M384 0v576h-128v-576h128zM448-64v0h-256v704h256v-704zM1024 832v-128h-1024v128zM832 640v-448h-256v448z" />
<glyph unicode="&#xeaba;" glyph-name="align-center-vertical" data-tags="align-center-vertical, align" d="M448 0v320h128v-192h256v192h192v128h-192v192h-256v-192h-128v320h-256v-320h-192v-128h192v-320h256zM256 64v640h128v-640h-128z" />
<glyph unicode="&#xeabb;" glyph-name="align-bottom" data-tags="align-bottom, align" d="M384 768v-576h-128v576h128zM448 832v0h-256v-704h256v704zM1024-64v128h-1024v-128zM832 128v448h-256v-448z" />
<glyph unicode="&#xeabc;" glyph-name="reply" data-tags="undo, left, arrow-left" d="M761.862-128c113.726 206.032 132.888 520.306-313.862 509.824v-253.824l-384 384 384 384v-248.372c534.962 13.942 594.57-472.214 313.862-775.628z" />
<glyph unicode="&#xeabd;" glyph-name="forward" data-tags="redo, right, arrow-right" d="M576 647.628v248.372l384-384-384-384v253.824c-446.75 10.482-427.588-303.792-313.86-509.824-280.712 303.414-221.1 789.57 313.86 775.628z" />
<glyph unicode="&#xeabe;" glyph-name="forward-down" data-tags="forward, right, arrow-right" d="M262.14 896c-113.728-206.032-132.89-520.304 313.86-509.824v253.824l384-384-384-384v248.372c-534.96-13.942-594.572 472.214-313.86 775.628z" />
<glyph unicode="&#xeabf;" glyph-name="reply-down" data-tags="reply, left, arrow-left" d="M448 120.372v-248.372l-384 384 384 384v-253.824c446.75-10.48 427.588 303.792 313.862 509.824 280.71-303.414 221.1-789.57-313.862-775.628z" />
<glyph unicode="&#xeac0;" glyph-name="reply-all-down" data-tags="reply-all, left, arrow-left" horiz-adv-x="1088" d="M907.766 896c113.726-206.032 146.984-520.304-299.766-509.824v221.824l-352-352 352-352v216.372c448 0 580.476 472.214 299.766 775.628zM416 544l-64 64-352-352 320-320 64 64-256 256z" />
<glyph unicode="&#xeac1;" glyph-name="bubble" data-tags="bubble, comment, chat, talk" d="M512 832c282.77 0 512-186.25 512-416 0-229.752-229.23-416-512-416-27.156 0-53.81 1.734-79.824 5.044-109.978-109.978-241.25-129.7-368.176-132.596v26.916c68.536 33.578 128 94.74 128 164.636 0 9.754-0.758 19.33-2.164 28.696-115.796 76.264-189.836 192.754-189.836 323.304 0 229.75 229.23 416 512 416z" />
<glyph unicode="&#xeac2;" glyph-name="bubbles" data-tags="bubbles, comments, chat, talk" horiz-adv-x="1152" d="M1088-5.166c0-45.5 26.028-84.908 64-104.184v-15.938c-10.626-1.454-21.472-2.224-32.5-2.224-68.008 0-129.348 28.528-172.722 74.264-26.222-6.982-54.002-10.752-82.778-10.752-159.058 0-288 114.616-288 256s128.942 256 288 256c159.058 0 288-114.616 288-256 0-55.348-19.764-106.592-53.356-148.466-6.824-14.824-10.644-31.312-10.644-48.7zM512 896c278.458 0 504.992-180.614 511.836-405.52-49.182 21.92-103.586 33.52-159.836 33.52-95.56 0-185.816-33.446-254.138-94.178-70.846-62.972-109.862-147.434-109.862-237.822 0-44.672 9.544-87.888 27.736-127.788-5.228-0.126-10.468-0.212-15.736-0.212-27.156 0-53.81 1.734-79.824 5.044-109.978-109.978-241.25-129.7-368.176-132.596v26.916c68.536 33.578 128 94.74 128 164.636 0 9.754-0.758 19.33-2.164 28.696-115.796 76.264-189.836 192.754-189.836 323.304 0 229.75 229.23 416 512 416z" />
<glyph unicode="&#xeac3;" glyph-name="bubbles-2" data-tags="bubbles, comments, chat, talk" horiz-adv-x="1152" d="M480 896v0c265.096 0 480-173.914 480-388.448s-214.904-388.448-480-388.448c-25.458 0-50.446 1.62-74.834 4.71-103.106-102.694-222.172-121.108-341.166-123.814v25.134c64.252 31.354 116 88.466 116 153.734 0 9.106-0.712 18.048-2.030 26.794-108.558 71.214-177.97 179.988-177.97 301.89 0 214.534 214.904 388.448 480 388.448zM996 25.314c0-55.942 36.314-104.898 92-131.772v-21.542c-103.126 2.318-197.786 18.102-287.142 106.126-21.14-2.65-42.794-4.040-64.858-4.040-95.47 0-183.408 25.758-253.614 69.040 144.674 0.506 281.26 46.854 384.834 130.672 52.208 42.252 93.394 91.826 122.414 147.348 30.766 58.866 46.366 121.582 46.366 186.406 0 10.448-0.45 20.836-1.258 31.168 72.57-59.934 117.258-141.622 117.258-231.676 0-104.488-60.158-197.722-154.24-258.764-1.142-7.496-1.76-15.16-1.76-22.966z" />
<glyph unicode="&#xeaf4;" glyph-name="user" data-tags="user, profile, avatar, person, member" d="M576 189.388v52.78c70.498 39.728 128 138.772 128 237.832 0 159.058 0 288-192 288s-192-128.942-192-288c0-99.060 57.502-198.104 128-237.832v-52.78c-217.102-17.748-384-124.42-384-253.388h896c0 128.968-166.898 235.64-384 253.388z" />
<glyph unicode="&#xeaf5;" glyph-name="users" data-tags="users, group, team, members, community, collaborate" horiz-adv-x="1152" d="M768 125.388v52.78c70.498 39.728 128 138.772 128 237.832 0 159.058 0 288-192 288s-192-128.942-192-288c0-99.060 57.502-198.104 128-237.832v-52.78c-217.102-17.748-384-124.42-384-253.388h896c0 128.968-166.898 235.64-384 253.388zM327.196 100.672c55.31 36.15 124.080 63.636 199.788 80.414-15.054 17.784-28.708 37.622-40.492 59.020-30.414 55.234-46.492 116.058-46.492 175.894 0 86.042 0 167.31 30.6 233.762 29.706 64.504 83.128 104.496 159.222 119.488-16.914 76.48-61.94 126.75-181.822 126.75-192 0-192-128.942-192-288 0-99.060 57.502-198.104 128-237.832v-52.78c-217.102-17.748-384-124.42-384-253.388h279.006c14.518 12.91 30.596 25.172 48.19 36.672z" />
<glyph unicode="&#xeaf6;" glyph-name="user-plus" data-tags="user-plus, user, user-add, profile, avatar, person, member" d="M384 160c0 151.234 95.874 280.486 230.032 330.2 16.28 36.538 25.968 77.164 25.968 117.8 0 159.058 0 288-192 288s-192-128.942-192-288c0-99.060 57.502-198.104 128-237.832v-52.78c-217.102-17.748-384-124.42-384-253.388h397.306c-8.664 30.53-13.306 62.732-13.306 96zM736 448c-159.058 0-288-128.942-288-288s128.942-288 288-288c159.056 0 288 128.942 288 288s-128.942 288-288 288zM896 128h-128v-128h-64v128h-128v64h128v128h64v-128h128v-64z" />
<glyph unicode="&#xeaf7;" glyph-name="user-minus" data-tags="user-minus, user, user-remove, profile, avatar, person, member" d="M384 160c0 151.234 95.874 280.486 230.032 330.2 16.28 36.538 25.968 77.164 25.968 117.8 0 159.058 0 288-192 288s-192-128.942-192-288c0-99.060 57.502-198.104 128-237.832v-52.78c-217.102-17.748-384-124.42-384-253.388h397.306c-8.664 30.53-13.306 62.732-13.306 96zM736 448c-159.058 0-288-128.942-288-288s128.942-288 288-288c159.056 0 288 128.942 288 288s-128.942 288-288 288zM896 128h-320v64h320v-64z" />
<glyph unicode="&#xeaf8;" glyph-name="user-cancel" data-tags="user-cancel, user, user-remove, profile, avatar, person, member" d="M384 160c0 151.234 95.874 280.486 230.032 330.2 16.28 36.538 25.968 77.164 25.968 117.8 0 159.058 0 288-192 288s-192-128.942-192-288c0-99.060 57.502-198.104 128-237.832v-52.78c-217.102-17.748-384-124.42-384-253.388h397.306c-8.664 30.53-13.306 62.732-13.306 96zM736 448c-159.058 0-288-128.942-288-288s128.942-288 288-288c159.056 0 288 128.942 288 288s-128.942 288-288 288zM889.456 57.456c14.060-14.058 14.060-36.852 0-50.91-7.030-7.030-16.242-10.546-25.456-10.546s-18.426 3.516-25.456 10.544l-102.544 102.546-102.544-102.544c-7.030-7.030-16.242-10.546-25.456-10.546s-18.426 3.516-25.456 10.544c-14.060 14.058-14.060 36.852 0 50.91l102.546 102.546-102.544 102.544c-14.060 14.058-14.060 36.852 0 50.91 14.058 14.058 36.852 14.058 50.91 0l102.544-102.544 102.544 102.544c14.058 14.058 36.852 14.058 50.91 0 14.060-14.058 14.060-36.852 0-50.91l-102.544-102.544 102.546-102.544z" />
<glyph unicode="&#xeaf9;" glyph-name="user-block" data-tags="user-block, user, user-ban, profile, avatar, person, member" d="M384 160c0 151.234 95.874 280.486 230.032 330.2 16.28 36.538 25.968 77.164 25.968 117.8 0 159.058 0 288-192 288s-192-128.942-192-288c0-99.060 57.502-198.104 128-237.832v-52.78c-217.102-17.748-384-124.42-384-253.388h397.306c-8.664 30.53-13.306 62.732-13.306 96zM736 448c-159.058 0-288-128.942-288-288s128.942-288 288-288c159.056 0 288 128.942 288 288s-128.942 288-288 288zM512 160c0 123.71 100.29 224 224 224 48.862 0 94.062-15.656 130.88-42.208l-312.67-312.672c-26.554 36.818-42.21 82.018-42.21 130.88zM736-64c-48.862 0-94.062 15.656-130.88 42.208l312.672 312.672c26.552-36.818 42.208-82.018 42.208-130.88 0-123.71-100.288-224-224-224z" />
<glyph unicode="&#xeafa;" glyph-name="user-lock" data-tags="user-lock, user, user-private, profile, avatar, person, member" d="M976 192h-16v64c0 70.58-57.422 128-128 128-70.58 0-128-57.42-128-128v-64h-16c-26.4 0-48-21.6-48-48v-224c0-26.4 21.6-48 48-48h288c26.398 0 48 21.6 48 48v224c0 26.4-21.602 48-48 48zM768 256c0 35.29 28.708 64 64 64 35.29 0 64-28.71 64-64v-64h-128v64zM576 309.364c-20.748 3.528-42.114 6.236-64 8.026v52.78c70.498 39.728 128 138.772 128 237.832 0 159.058 0 288-192 288s-192-128.942-192-288c0-99.060 57.502-198.104 128-237.832v-52.78c-217.102-17.75-384-124.422-384-253.39h576v245.364z" />
<glyph unicode="&#xeafb;" glyph-name="user-check" data-tags="user-check, user, user-tick, profile, avatar, person, member" d="M960 288l-288-288-96 96-64-64 160-160 352 352zM448 128h320v115.128c-67.22 39.2-156.308 66.11-256 74.26v52.78c70.498 39.728 128 138.772 128 237.832 0 159.058 0 288-192 288s-192-128.942-192-288c0-99.060 57.502-198.104 128-237.832v-52.78c-217.102-17.748-384-124.42-384-253.388h448v64z" />
<glyph unicode="&#xeafc;" glyph-name="users-active" data-tags="users, group, team, members, community, collaborate, dualtone" horiz-adv-x="1152" d="M768 125.386v52.782c70.496 39.728 128 138.772 128 237.832 0 159.058 0 288-192 288s-192-128.942-192-288c0-99.060 57.502-198.104 128-237.832v-52.782c-217.102-17.746-384-124.418-384-253.386h896c0 128.968-166.898 235.64-384 253.386zM207.498 280c-13.554-4.938-26.606-10.284-39.116-16h306.044c-2.456 5.294-4.79 10.628-6.99 16h-259.938zM27.2 152c-3.366-5.254-6.438-10.59-9.208-16h373.4c12.264 5.682 24.928 11.022 37.958 16h-402.15zM87.52 216c-6.71-5.188-13.088-10.524-19.112-16h443.694c-3.82 5.202-7.53 10.532-11.108 16h-413.474zM336.676 312c-27.154-3.968-53.32-9.344-78.23-16h202.854c-1.9 5.306-3.67 10.64-5.32 16h-119.304zM384 344v-16h67.426c-1.378 5.316-2.614 10.652-3.746 16h-63.68zM374.466 376c3.152-2.048 6.326-4.024 9.536-5.832v-10.168h60.63c-0.876 5.326-1.588 10.662-2.218 16h-67.948zM1.946 88c-0.862-5.288-1.416-10.624-1.704-16h288.084c6.556 5.46 13.394 10.798 20.526 16h-306.906zM109.986 232h381.106c-1.562 2.676-3.096 5.376-4.598 8.106-1.44 2.616-2.818 5.254-4.192 7.894h-345.738c-9.252-5.114-18.122-10.452-26.578-16zM256.34 664c-0.098-5.282-0.166-10.618-0.216-16h213.696c0.264 0.586 0.512 1.178 0.782 1.762 2.252 4.892 4.66 9.628 7.186 14.238h-221.448zM10.782 120c-2.060-5.274-3.842-10.608-5.322-16h326.984c8.732 5.54 17.75 10.89 27.1 16h-348.762zM297.16 840h301.654c-4.488 5.72-9.462 11.068-14.986 16h-271.662c-5.526-4.936-10.514-10.276-15.006-16zM38.546 168h438.050c16.396 4.888 33.202 9.278 50.39 13.086-0.81 0.958-1.6 1.946-2.404 2.914h-472.378c-4.866-5.228-9.424-10.564-13.658-16zM336.34 408c5.438-5.694 11.048-11.046 16.822-16h87.716c-0.378 5.336-0.616 10.67-0.744 16h-103.794zM310.266 440c3.854-5.524 7.852-10.872 12.002-16h117.734c0.002 5.354 0.008 10.688 0.024 16h-129.76zM272.352 792c-1.698-5.182-3.216-10.52-4.58-16h360.458c-1.364 5.486-2.902 10.812-4.602 16h-351.276zM264.302 760c-0.982-5.226-1.852-10.558-2.616-16h296.024c11.48 6.244 23.802 11.582 36.966 16h-330.374zM257.386 696c-0.262-5.272-0.48-10.602-0.652-16h230.738c3.722 5.576 7.678 10.908 11.862 16h-241.948zM259.756 728c-0.54-5.25-1.002-10.586-1.396-16h255.65c5.878 5.714 12.116 11.048 18.712 16h-272.966zM375.446 888c-15.558-3.962-29.090-9.342-40.86-16h226.826c-11.78 6.666-25.348 12.036-40.928 16h-145.038zM290.816 472c2.872-5.456 5.888-10.792 9.042-16h140.258c0.048 5.36 0.116 10.694 0.21 16h-149.51zM286.394 824c-2.942-5.11-5.602-10.446-8.002-16h339.206c-2.4 5.556-5.070 10.888-8.012 16h-323.192zM265.736 536c1.44-5.384 3.040-10.718 4.768-16h171.696c0.352 5.376 0.766 10.708 1.242 16h-177.706zM276.234 504c2.106-5.414 4.356-10.75 6.746-16h157.726c0.16 5.368 0.36 10.7 0.604 16h-165.076zM256.026 632c-0.016-5.294-0.024-10.628-0.026-16h201.92c1.63 5.412 3.41 10.746 5.352 16h-207.246zM256.146 600c0.166-5.342 0.512-10.676 0.998-16h192.916c1.052 5.398 2.228 10.728 3.514 16h-197.428zM259.072 568c0.806-5.36 1.742-10.698 2.848-16h183.186c0.642 5.382 1.36 10.718 2.172 16h-188.206z" />
<glyph unicode="&#xeb20;" glyph-name="spinner" data-tags="spinner, loading, loading-wheel, busy, wait" d="M1024 384c-1.278 66.862-15.784 133.516-42.576 194.462-26.704 61-65.462 116.258-113.042 161.92-47.552 45.696-103.944 81.82-164.984 105.652-61.004 23.924-126.596 35.352-191.398 33.966-64.81-1.282-129.332-15.374-188.334-41.356-59.048-25.896-112.542-63.47-156.734-109.576-44.224-46.082-79.16-100.708-102.186-159.798-23.114-59.062-34.128-122.52-32.746-185.27 1.286-62.76 14.964-125.148 40.134-182.206 25.088-57.1 61.476-108.828 106.11-151.548 44.61-42.754 97.472-76.504 154.614-98.72 57.118-22.304 118.446-32.902 179.142-31.526 60.708 1.29 120.962 14.554 176.076 38.914 55.15 24.282 105.116 59.48 146.366 102.644 41.282 43.14 73.844 94.236 95.254 149.43 13.034 33.458 21.88 68.4 26.542 103.798 1.246-0.072 2.498-0.12 3.762-0.12 35.346 0 64 28.652 64 64 0 1.796-0.094 3.572-0.238 5.332h0.238zM922.306 214.052c-23.472-53.202-57.484-101.4-99.178-141.18-41.67-39.81-91-71.186-144.244-91.79-53.228-20.678-110.29-30.452-166.884-29.082-56.604 1.298-112.596 13.736-163.82 36.474-51.25 22.666-97.684 55.49-135.994 95.712-38.338 40.198-68.528 87.764-88.322 139.058-19.87 51.284-29.228 106.214-27.864 160.756 1.302 54.552 13.328 108.412 35.254 157.69 21.858 49.3 53.498 93.97 92.246 130.81 38.73 36.868 84.53 65.87 133.874 84.856 49.338 19.060 102.136 28.006 154.626 26.644 52.5-1.306 104.228-12.918 151.562-34.034 47.352-21.050 90.256-51.502 125.624-88.782 35.396-37.258 63.21-81.294 81.39-128.688 18.248-47.392 26.782-98.058 25.424-148.496h0.238c-0.144-1.76-0.238-3.536-0.238-5.332 0-33.012 24.992-60.174 57.086-63.624-6.224-34.822-16.53-68.818-30.78-100.992z" />
<glyph unicode="&#xeb2d;" glyph-name="search" data-tags="search, magnifier, magnifying-glass, inspect, find" d="M1024 32l-300.486 300.486c28.384 53.576 44.486 114.66 44.486 179.514 0 212.078-171.922 384-384 384-212.076 0-384-171.922-384-384s171.922-384 384-384c64.854 0 125.938 16.102 179.514 44.486l300.486-300.486 160 160zM128 512c0 141.384 114.616 256 256 256s256-114.616 256-256-114.616-256-256-256-256 114.616-256 256z" />
<glyph unicode="&#xeb3b;" glyph-name="enlarge" data-tags="enlarge, expand, maximize, fullscreen" d="M1024 896h-416l160-160-192-192 96-96 192 192 160-160zM1024-128v416l-160-160-192 192-96-96 192-192-160-160zM0-128h416l-160 160 192 192-96 96-192-192-160 160zM0 896v-416l160 160 192-192 96 96-192 192 160 160z" />
<glyph unicode="&#xeb3c;" glyph-name="shrink" data-tags="shrink, collapse, minimize, contract" d="M576 448h416l-160 160 192 192-96 96-192-192-160 160zM576 320v-416l160 160 192-192 96 96-192 192 160 160zM448 320.004h-416l160-160-192-192 96-96 192 192 160-160zM448 448v416l-160-160-192 192-96-96 192-192-160-160z" />
<glyph unicode="&#xeb45;" glyph-name="pinch-out" data-tags="enlarge, expand, maximize, fullscreen" d="M1024 896v-416l-160 160-192-192-96 96 192 192-160 160zM448 224l-192-192 160-160h-416v416l160-160 192 192z" />
<glyph unicode="&#xeb46;" glyph-name="pinch" data-tags="shrink, collapse, minimize, contract" d="M448 320v-416l-160 160-192-192-96 96 192 192-160 160zM1024 800l-192-192 160-160h-416v416l160-160 192 192z" />
<glyph unicode="&#xeb50;" glyph-name="locked" data-tags="lock, secure, private, encrypted" d="M592 448h-16v192c0 105.87-86.13 192-192 192h-128c-105.87 0-192-86.13-192-192v-192h-16c-26.4 0-48-21.6-48-48v-480c0-26.4 21.6-48 48-48h544c26.4 0 48 21.6 48 48v480c0 26.4-21.6 48-48 48zM192 640c0 35.29 28.71 64 64 64h128c35.29 0 64-28.71 64-64v-192h-256v192z" />
<glyph unicode="&#xeb51;" glyph-name="unlocked" data-tags="unlocked, lock-open" d="M768 832c105.87 0 192-86.13 192-192v-192h-128v192c0 35.29-28.71 64-64 64h-128c-35.29 0-64-28.71-64-64v-192h16c26.4 0 48-21.6 48-48v-480c0-26.4-21.6-48-48-48h-544c-26.4 0-48 21.6-48 48v480c0 26.4 21.6 48 48 48h400v192c0 105.87 86.13 192 192 192h128z" />
<glyph unicode="&#xeb55;" glyph-name="wrench" data-tags="wrench, tool, fix, settings, control, options, preferences" d="M1002.934 78.124l-460.552 394.76c21.448 40.298 33.618 86.282 33.618 135.116 0 159.058-128.942 288-288 288-29.094 0-57.172-4.332-83.646-12.354l166.39-166.39c24.89-24.89 24.89-65.62 0-90.51l-101.49-101.49c-24.89-24.89-65.62-24.89-90.51 0l-166.39 166.39c-8.022-26.474-12.354-54.552-12.354-83.646 0-159.058 128.942-288 288-288 48.834 0 94.818 12.17 135.116 33.62l394.76-460.552c22.908-26.724 62.016-28.226 86.904-3.338l101.492 101.492c24.888 24.888 23.386 63.994-3.338 86.902z" />
<glyph unicode="&#xeb58;" glyph-name="equalizer" data-tags="equalizer, sliders, settings, preferences, dashboard, control" d="M448 768v16c0 26.4-21.6 48-48 48h-160c-26.4 0-48-21.6-48-48v-16h-192v-128h192v-16c0-26.4 21.6-48 48-48h160c26.4 0 48 21.6 48 48v16h576v128h-576zM256 640v128h128v-128h-128zM832 464c0 26.4-21.6 48-48 48h-160c-26.4 0-48-21.6-48-48v-16h-576v-128h576v-16c0-26.4 21.6-48 48-48h160c26.4 0 48 21.6 48 48v16h192v128h-192v16zM640 320v128h128v-128h-128zM448 144c0 26.4-21.6 48-48 48h-160c-26.4 0-48-21.6-48-48v-16h-192v-128h192v-16c0-26.4 21.6-48 48-48h160c26.4 0 48 21.6 48 48v16h576v128h-576v16zM256 0v128h128v-128h-128z" />
<glyph unicode="&#xeb59;" glyph-name="equalizer-vertical" data-tags="equalizer, sliders, settings, preferences, dashboard, control" d="M896 448h16c26.4 0 48 21.6 48 48v160c0 26.4-21.6 48-48 48h-16v192h-128v-192h-16c-26.4 0-48-21.6-48-48v-160c0-26.4 21.6-48 48-48h16v-576h128v576zM768 640h128v-128h-128v128zM592 64c26.4 0 48 21.6 48 48v160c0 26.4-21.6 48-48 48h-16v576h-128v-576h-16c-26.4 0-48-21.6-48-48v-160c0-26.4 21.6-48 48-48h16v-192h128v192h16zM448 256h128v-128h-128v128zM272 448c26.4 0 48 21.6 48 48v160c0 26.4-21.6 48-48 48h-16v192h-128v-192h-16c-26.4 0-48-21.6-48-48v-160c0-26.4 21.6-48 48-48h16v-576h128v576h16zM128 640h128v-128h-128v128z" />
<glyph unicode="&#xeb5e;" glyph-name="gear" data-tags="cog, gear, preferences, settings, generate, control, options" d="M1024 287.906v192.188l-146.774 24.462c-5.958 18.132-13.222 35.668-21.694 52.5l86.454 121.034-135.896 135.898-120.826-86.304c-16.91 8.554-34.538 15.888-52.768 21.902l-24.402 146.414h-192.188l-24.402-146.416c-18.23-6.014-35.858-13.348-52.766-21.902l-120.828 86.304-135.898-135.898 86.454-121.036c-8.47-16.83-15.734-34.366-21.692-52.498l-146.774-24.46v-192.188l147.118-24.52c5.96-17.968 13.21-35.348 21.642-52.030l-86.748-121.448 135.898-135.896 121.654 86.894c16.602-8.35 33.89-15.528 51.764-21.434l24.578-147.472h192.188l24.578 147.474c17.874 5.906 35.162 13.084 51.766 21.432l121.652-86.892 135.896 135.896-86.744 121.446c8.432 16.682 15.678 34.062 21.64 52.032l147.118 24.518zM512 256c-70.692 0-128 57.306-128 128 0 70.692 57.308 128 128 128 70.694 0 128-57.308 128-128 0-70.694-57.306-128-128-128z" />
<glyph unicode="&#xeb66;" glyph-name="hammer-wrench" data-tags="hammer-wrench, tool, fix, make, generate, work, build" horiz-adv-x="1280" d="M492.556 191.446l146.89-146.89-116.676-149.824c-21.382-27.962-59.242-30.474-84.132-5.586l-101.49 101.492c-24.89 24.888-22.376 62.748 5.584 84.13l149.824 116.678zM1273.512 633.508l-153.512-153.51-192 192 153.512 153.51c-18.488 4.244-37.738 6.49-57.512 6.49-141.384 0-256-114.616-256-256 0-50.996 14.916-98.506 40.618-138.416l-142.908-111.292-217.71 217.708 288 288h-320l-142.058-142.058-14.060 14.058h-67.882v-67.882l14.058-14.058-206.058-206.060 160-160 192 192 576-575.996 96 95.996-249.708 249.71 111.292 142.908c39.908-25.702 87.42-40.618 138.416-40.618 141.384 0 256 114.616 256 256 0 19.774-2.246 39.024-6.488 57.51z" />
<glyph unicode="&#xeb68;" glyph-name="screwdriver" data-tags="screwdriver, tool, fix, make, build" d="M1014.512 105.488l-397.024 397.024c-22.060 22.062-76.82 4.308-130.744-39.516l-294.744 294.744-32 74.26-102.464 64-57.536-57.536 64-102.464 74.26-32 294.746-294.744c-43.826-53.926-61.58-108.684-39.52-130.744 0.006-0.006 0.012-0.010 0.018-0.016l397.006-397.008c25.952-25.95 97.13 3.158 158.988 65.016 61.856 61.856 90.962 133.038 65.014 158.984zM890.87 5.13c-7.42-7.42-17.144-11.13-26.87-11.13s-19.45 3.71-26.87 11.13l-320 320c-14.842 14.84-14.842 38.898 0 53.738 14.84 14.84 38.898 14.84 53.738 0l320-320c14.842-14.838 14.842-38.898 0.002-53.738z" />
<glyph unicode="&#xeb7e;" glyph-name="graph-pie" data-tags="pie-chart, stats, statistics, graph" d="M448 768c-247.424 0-448-200.576-448-448s200.576-448 448-448 448 200.576 448 448h-448v448zM576 896v-448h448c0 247.424-200.576 448-448 448z" />
<glyph unicode="&#xeb7f;" glyph-name="graph-pie-2" data-tags="pie-chart, stats, statistics, graph, dualtone" d="M512 896c-282.77 0-512-229.23-512-512s229.23-512 512-512 512 229.23 512 512-229.23 512-512 512zM295.006-8c-9.068 5.032-17.942 10.372-26.612 16h487.226c-8.672-5.63-17.55-10.966-26.624-16h-433.99zM697.27-24c-13.112-5.962-26.566-11.3-40.316-16h-289.906c-13.744 4.698-27.188 10.040-40.292 16h370.514zM245.358 24c-6.934 5.146-13.728 10.47-20.346 16h573.982c-6.618-5.528-13.404-10.856-20.338-16h-533.298zM190.554 72h588.192l16-16h-587.842c-5.584 5.196-11.038 10.528-16.35 16zM586.746 264l16-16h-517.672c-1.684 5.292-3.268 10.624-4.76 16h506.432zM76.168 280c-1.258 5.294-2.398 10.634-3.466 16h482.044l16-16h-494.578zM618.746 232l16-16h-538.122c-2.14 5.288-4.2 10.616-6.142 16h528.264zM650.746 200l16-16h-555.682c-2.634 5.274-5.162 10.61-7.592 16h547.274zM682.746 168l16-16h-570.032c-3.192 5.264-6.282 10.598-9.26 16h563.292zM714.746 136l16-16h-580.688c-3.834 5.248-7.556 10.582-11.164 16h575.852zM746.746 104l16-16h-587.010c-4.602 5.224-9.076 10.562-13.434 16h584.444zM530.746 320l8-8h-468.938c-0.43 2.66-0.856 5.324-1.238 8h462.176zM512 832v-448h-448c0 247.424 200.576 448 448 448zM427.38-56h169.226c-27.4-5.238-55.68-8-84.608-8-28.93 0-57.212 2.76-84.618 8z" />
<glyph unicode="&#xeb80;" glyph-name="graph-pie-3" data-tags="pie-chart, stats, statistics, graph, dualtone" d="M512 896c282.77 0 512-229.23 512-512h-512v512zM448 892.024c-252.562-31.496-448-246.93-448-508.024 0-282.77 229.23-512 512-512 261.094 0 476.53 195.438 508.026 448h-572.026v572.024zM367.068 808h16.932v-16h-57.234c13.154 5.98 26.606 11.316 40.302 16zM295.018 776h88.982v-16h-115.616c8.698 5.644 17.58 10.98 26.634 16zM245.328 744h138.672v-16h-158.98c6.626 5.534 13.396 10.874 20.308 16zM206.876 712h177.124v-16h-193.464c5.322 5.482 10.77 10.816 16.34 16zM175.74 680h208.26v-16h-221.706c4.35 5.424 8.83 10.76 13.446 16zM150.048 648h233.952v-16h-245.116c3.598 5.408 7.324 10.74 11.164 16zM128.708 616h255.292v-16h-264.52c2.968 5.39 6.034 10.728 9.228 16zM111.098 584h272.902v-16h-280.498c2.424 5.38 4.958 10.714 7.596 16zM96.646 552h287.354v-16h-293.456c1.936 5.372 3.962 10.708 6.102 16zM85.124 520h298.876v-16h-303.662c1.49 5.368 3.098 10.698 4.786 16zM76.226 488h307.774v-16h-311.276c1.072 5.358 2.238 10.692 3.502 16zM69.81 456h314.19v-16h-316.472c0.672 5.352 1.418 10.688 2.282 16zM65.792 424h318.208v-16h-319.334c0.286 5.346 0.65 10.682 1.126 16zM64 384c0 2.67 0.044 5.334 0.092 8h319.908v-16h-319.902c-0.046 2.664-0.098 5.328-0.098 8zM64.64 360h319.36v-16h-318.22c-0.466 5.316-0.86 10.648-1.14 16zM67.442 328h316.558v-16h-314.244c-0.856 5.316-1.648 10.644-2.314 16zM72.614 296h311.386v-16h-307.874c-1.262 5.312-2.446 10.642-3.512 16zM512-64c-28.724 0-57.026 2.702-84.746 8h169.046c-27.592-5.276-55.802-8-84.3-8zM656.724-40h-289.78c-9.868 3.378-19.642 7.092-29.306 11.18-3.68 1.556-7.33 3.17-10.958 4.82h370.436c-13.196-5.988-26.676-11.322-40.392-16zM728.932-8h-434.002c-9.072 5.028-17.956 10.36-26.64 16h487.298c-8.712-5.648-17.602-10.986-26.656-16zM778.668 24h-533.418c-6.898 5.124-13.648 10.466-20.26 16h573.976c-6.63-5.538-13.392-10.878-20.298-16zM817.13 56h-610.248c-3.94 3.67-7.842 7.392-11.666 11.216-1.578 1.578-3.12 3.186-4.67 4.784h642.928c-5.298-5.458-10.75-10.792-16.344-16zM848.288 88h-672.558c-4.622 5.238-9.112 10.572-13.468 16h699.454c-4.348-5.426-8.82-10.766-13.428-16zM873.962 120h-723.964c-3.842 5.256-7.576 10.586-11.18 16h746.31c-3.602-5.41-7.326-10.742-11.166-16zM895.294 152h-766.674c-3.188 5.262-6.246 10.604-9.216 16h785.144c-2.976-5.394-6.058-10.728-9.254-16zM912.962 184h-801.946c-2.634 5.28-5.192 10.604-7.624 16h817.16c-2.428-5.38-4.95-10.718-7.59-16zM927.392 216h-830.81c-2.148 5.304-4.208 10.634-6.144 16h843.082c-1.94-5.376-3.984-10.708-6.128-16zM941.43 256c-0.796-2.676-1.624-5.342-2.47-8h-853.944c-1.692 5.308-3.294 10.638-4.784 16h303.768v-8h557.43z" />
<glyph unicode="&#xeb81;" glyph-name="graph-pie-4" data-tags="pie-chart, stats, statistics, graph" d="M448 320v572.024c-252.562-31.496-448-246.93-448-508.024 0-282.77 229.23-512 512-512 261.094 0 476.53 195.438 508.026 448h-572.026zM809.58 49.112c-82.014-72.942-187.696-113.112-297.58-113.112-60.508 0-119.172 11.836-174.362 35.18-53.34 22.56-101.256 54.874-142.42 96.038-41.166 41.162-73.478 89.080-96.038 142.42-23.344 55.19-35.18 113.854-35.18 174.362 0 109.884 40.17 215.566 113.112 297.578 55.866 62.816 127.634 108.242 206.888 131.85v-557.428h557.43c-23.61-79.256-69.036-151.022-131.85-206.888zM512 896c282.77 0 512-229.23 512-512h-512v512z" />
<glyph unicode="&#xeb82;" glyph-name="graph-pie-5" data-tags="pie-chart, stats, statistics, graph, dualtone" d="M448 892.024v-572.024h572.026c-31.496-252.562-246.932-448-508.026-448-282.77 0-512 229.23-512 512 0 261.094 195.438 476.528 448 508.024zM512 896v-512h512c0 282.77-229.23 512-512 512zM576 456h378.272c0.428-2.662 0.84-5.328 1.22-8h-379.492v8zM657.084 808c9.858-3.378 19.624-7.096 29.278-11.18 3.682-1.556 7.33-3.17 10.958-4.82h-121.32v16h81.084zM576 824v3.494c7.006-0.998 13.976-2.166 20.91-3.494h-20.91zM729.070 776c9.070-5.028 17.956-10.36 26.64-16h-179.71v16h153.070zM778.75 744c6.896-5.124 13.646-10.466 20.26-16h-223.010v16h202.75zM817.118 712c3.94-3.67 7.842-7.392 11.666-11.216 1.578-1.58 3.12-3.186 4.672-4.784h-257.456v16h241.118zM848.27 680c4.624-5.238 9.112-10.574 13.468-16h-285.738v16h272.27zM874.002 648c3.844-5.256 7.576-10.586 11.182-16h-309.184v16h298.002zM895.38 616c3.188-5.262 6.244-10.604 9.216-16h-328.596v16h319.38zM912.984 584c2.634-5.28 5.192-10.604 7.624-16h-344.608v16h336.984zM927.452 552c2.148-5.302 4.18-10.638 6.116-16h-357.568v16h351.452zM939.004 520c1.692-5.308 3.292-10.64 4.782-16h-367.786v16h363.004zM947.894 488c1.262-5.31 2.424-10.644 3.49-16h-375.384v16h371.894z" />
<glyph unicode="&#xeb83;" glyph-name="graph-pie-6" data-tags="pie-chart, stats, statistics, graph" d="M448 320v572.024c-252.562-31.496-448-246.93-448-508.024 0-282.77 229.23-512 512-512 261.094 0 476.53 195.438 508.026 448h-572.026zM512 384h512c0 282.77-229.23 512-512 512v-512z" />
<glyph unicode="&#xeb84;" glyph-name="graph-line-dots" data-tags="stats-dots, stats, plot, statistics, chart" d="M128 0h896v-128h-1024v1024h128zM288 64c-53.020 0-96 42.98-96 96s42.98 96 96 96c2.828 0 5.622-0.148 8.388-0.386l103.192 171.986c-9.84 15.070-15.58 33.062-15.58 52.402 0 53.020 42.98 96 96 96s96-42.98 96-96c0-19.342-5.74-37.332-15.58-52.402l103.192-171.986c2.766 0.238 5.56 0.386 8.388 0.386 2.136 0 4.248-0.094 6.35-0.23l170.356 298.122c-10.536 15.408-16.706 34.036-16.706 54.11 0 53.020 42.98 96 96 96s96-42.98 96-96c0-53.020-42.98-96-96-96-2.14 0-4.248 0.094-6.35 0.232l-170.356-298.124c10.536-15.406 16.706-34.036 16.706-54.11 0-53.020-42.98-96-96-96s-96 42.98-96 96c0 19.34 5.74 37.332 15.578 52.402l-103.19 171.984c-2.766-0.238-5.56-0.386-8.388-0.386s-5.622 0.146-8.388 0.386l-103.192-171.986c9.84-15.068 15.58-33.060 15.58-52.4 0-53.020-42.98-96-96-96z" />
<glyph unicode="&#xeb85;" glyph-name="graph-bars-resize" data-tags="stats-bars, stats, statistics, chart" d="M976 704c26.4 0 48 21.6 48 48v96c0 26.4-21.6 48-48 48h-96c-26.4 0-48-21.6-48-48v-16h-640v16c0 26.4-21.6 48-48 48h-96c-26.4 0-48-21.6-48-48v-96c0-26.4 21.6-48 48-48h16v-640h-16c-26.4 0-48-21.6-48-48v-96c0-26.4 21.6-48 48-48h96c26.4 0 48 21.6 48 48v16h640v-16c0-26.4 21.6-48 48-48h96c26.4 0 48 21.6 48 48v96c0 26.4-21.6 48-48 48h-16v640h16zM896 832h64v-64h-64v64zM64 832h64v-64h-64v64zM128-64h-64v64h64v-64zM960-64h-64v64h64v-64zM896 64h-16c-26.4 0-48-21.6-48-48v-16h-640v16c0 26.4-21.6 48-48 48h-16v640h16c26.4 0 48 21.6 48 48v16h640v-16c0-26.4 21.6-48 48-48h16v-640zM256 640h128v-512h-128zM448 384h128v-256h-128zM640 512h128v-384h-128z" />
<glyph unicode="&#xeb86;" glyph-name="graph-pie-resize" data-tags="pie-chart, stats, statistics, chart" d="M976 704c26.4 0 48 21.6 48 48v96c0 26.4-21.6 48-48 48h-96c-26.4 0-48-21.6-48-48v-16h-640v16c0 26.4-21.6 48-48 48h-96c-26.4 0-48-21.6-48-48v-96c0-26.4 21.6-48 48-48h16v-640h-16c-26.4 0-48-21.6-48-48v-96c0-26.4 21.6-48 48-48h96c26.4 0 48 21.6 48 48v16h640v-16c0-26.4 21.6-48 48-48h96c26.4 0 48 21.6 48 48v96c0 26.4-21.6 48-48 48h-16v640h16zM896 832h64v-64h-64v64zM64 832h64v-64h-64v64zM128-64h-64v64h64v-64zM960-64h-64v64h64v-64zM896 64h-16c-26.4 0-48-21.6-48-48v-16h-640v16c0 26.4-21.6 48-48 48h-16v640h16c26.4 0 48 21.6 48 48v16h640v-16c0-26.4 21.6-48 48-48h16v-640zM512 640v-256h256c0 141.384-114.616 256-256 256zM448 320v311.934c-110.414-28.418-192-128.65-192-247.934 0-141.384 114.616-256 256-256 119.286 0 219.516 81.586 247.934 192h-311.934z" />
<glyph unicode="&#xeb87;" glyph-name="graph-bars" data-tags="stats-bars, stats, statistics, chart" d="M0 64h1024v-128h-1024zM128 320h128v-192h-128zM320 576h128v-448h-128zM512 384h128v-256h-128zM704 768h128v-640h-128z" />
<glyph unicode="&#xeb88;" glyph-name="graph-bars-2" data-tags="stats-bars, stats, statistics, chart, dualtone" d="M640 640h-256v-768h256v768zM448 568v8h128v-8h-128zM448 536v16h128v-16h-128zM448 504v16h128v-16h-128zM448 472v16h128v-16h-128zM448 440v16h128v-16h-128zM448 408v16h128v-16h-128zM448 376v16h128v-16h-128zM448 344v16h128v-16h-128zM448 312v16h128v-16h-128zM448 280v16h128v-16h-128zM448 248v16h128v-16h-128zM448 216v16h128v-16h-128zM448 184v16h128v-16h-128zM448 152v16h128v-16h-128zM448 120v16h128v-16h-128zM448 88v16h128v-16h-128zM448 56v16h128v-16h-128zM448 24v16h128v-16h-128zM448-8v16h128v-16h-128zM448-40v16h128v-16h-128zM448-64v8h128v-8h-128zM0 320h256v-448h-256zM768 896h256v-1024h-256z" />
<glyph unicode="&#xeb89;" glyph-name="graph-bars-3" data-tags="stats-bars, stats, statistics, chart" d="M288 512h-192c-17.6 0-32-14.4-32-32v-576c0-17.6 14.4-32 32-32h192c17.6 0 32 14.4 32 32v576c0 17.6-14.4 32-32 32zM288-64h-192v256h192v-256zM608 640h-192c-17.6 0-32-14.4-32-32v-704c0-17.6 14.4-32 32-32h192c17.6 0 32 14.4 32 32v704c0 17.6-14.4 32-32 32zM608-64h-192v320h192v-320zM928 768h-192c-17.6 0-32-14.4-32-32v-832c0-17.6 14.4-32 32-32h192c17.6 0 32 14.4 32 32v832c0 17.6-14.4 32-32 32zM928-64h-192v384h192v-384z" />
<glyph unicode="&#xeb8a;" glyph-name="graph-bars-4" data-tags="stats-bars, stats, statistics, chart" d="M608 640h-192c-17.6 0-32-14.4-32-32v-704c0-17.6 14.4-32 32-32h192c17.6 0 32 14.4 32 32v704c0 17.6-14.4 32-32 32zM608-64h-192v328h192v-328zM608 280h-192v16h192v-16zM608 312h-192v16h192v-16zM608 344h-192v16h192v-16zM608 376h-192v16h192v-16zM608 408h-192v16h192v-16zM608 440h-192v16h192v-16zM608 472h-192v16h192v-16zM608 504h-192v16h192v-16zM608 536h-192v16h192v-16zM608 568h-192v8h192v-8zM288 512h-192c-17.6 0-32-14.4-32-32v-576c0-17.6 14.4-32 32-32h192c17.6 0 32 14.4 32 32v576c0 17.6-14.4 32-32 32zM288-64h-192v264h192v-264zM288 216h-192v16h192v-16zM288 248h-192v16h192v-16zM288 280h-192v16h192v-16zM288 312h-192v16h192v-16zM288 344h-192v16h192v-16zM288 376h-192v16h192v-16zM288 408h-192v16h192v-16zM288 440h-192v8h192v-8zM928 768h-192c-17.6 0-32-14.4-32-32v-832c0-17.6 14.4-32 32-32h192c17.6 0 32 14.4 32 32v832c0 17.6-14.4 32-32 32zM928-64h-192v392h192v-392zM928 344h-192v16h192v-16zM928 376h-192v16h192v-16zM928 408h-192v16h192v-16zM928 440h-192v16h192v-16zM928 472h-192v16h192v-16zM928 504h-192v16h192v-16zM928 536h-192v16h192v-16zM928 568h-192v16h192v-16zM928 600h-192v16h192v-16zM928 632h-192v16h192v-16zM928 664h-192v16h192v-16zM928 696h-192v8h192v-8z" />
</font>
</defs>
</svg>
